<svg width="32" height="32" viewBox="0 0 32 32" fill="none" xmlns="http://www.w3.org/2000/svg">
<path d="M24 6.66699H8C5.79086 6.66699 4 8.45785 4 10.667V21.3337C4 23.5428 5.79086 25.3337 8 25.3337H24C26.2091 25.3337 28 23.5428 28 21.3337V10.667C28 8.45785 26.2091 6.66699 24 6.66699Z" fill="white" stroke="#2D3748" stroke-width="1.5" stroke-linecap="round" stroke-linejoin="round"/>
<path d="M5.5 7H26.5L28 13H4L5.5 7Z" fill="url(#paint0_linear)"/>
<path d="M24 6.66699H8C5.79086 6.66699 4 8.45785 4 10.667V21.3337C4 23.5428 5.79086 25.3337 8 25.3337H24C26.2091 25.3337 28 23.5428 28 21.3337V10.667C28 8.45785 26.2091 6.66699 24 6.66699Z" stroke="#2D3748" stroke-width="1.5" stroke-linecap="round" stroke-linejoin="round"/>
<path d="M4 13.3335H28" stroke="#2D3748" stroke-width="1.5" stroke-linecap="round" stroke-linejoin="round"/>
<path d="M9.33301 20H9.34634" stroke="#2D3748" stroke-width="1.5" stroke-linecap="round" stroke-linejoin="round"/>
<path d="M14.667 20H17.3337" stroke="#2D3748" stroke-width="1.5" stroke-linecap="round" stroke-linejoin="round"/>
<defs>
<linearGradient id="paint0_linear" x1="16" y1="7" x2="16" y2="13" gradientUnits="userSpaceOnUse">
<stop stop-color="#E2E8F0"/>
<stop offset="1" stop-color="#CBD5E0"/>
</linearGradient>
</defs>
</svg>
