<svg width="20" height="20" viewBox="0 0 20 20" fill="none" xmlns="http://www.w3.org/2000/svg">
<path fill-rule="evenodd" clip-rule="evenodd" d="M6.23853 17.9167H13.195C15.7504 17.9167 17.7107 16.9937 17.1539 13.279L16.5055 8.24466C16.1623 6.39111 14.9799 5.68173 13.9426 5.68173H5.4605C4.40786 5.68173 3.29421 6.44451 2.89757 8.24466L2.24921 13.279C1.77629 16.5742 3.68323 17.9167 6.23853 17.9167Z" stroke="#1A202C" stroke-linecap="round" stroke-linejoin="round"/>
<path d="M6.12398 5.49867C6.12398 3.51027 7.73589 1.89836 9.72428 1.89836V1.89836C10.6818 1.89431 11.6015 2.27183 12.28 2.94746C12.9584 3.62309 13.3399 4.54116 13.3398 5.49867V5.49867" stroke="#1A202C" stroke-linecap="round" stroke-linejoin="round"/>
<path d="M7.25286 9.25154H7.291" stroke="#1A202C" stroke-linecap="round" stroke-linejoin="round"/>
<path d="M12.1122 9.25154H12.1504" stroke="#1A202C" stroke-linecap="round" stroke-linejoin="round"/>
</svg>
