<svg width="32" height="32" viewBox="0 0 32 32" fill="none" xmlns="http://www.w3.org/2000/svg">
<path d="M4.75 24.25V22.75C4.75 21.9544 5.06607 21.1913 5.62868 20.6287C6.19129 20.0661 6.95435 19.75 7.75 19.75H12.25C13.0456 19.75 13.8087 20.0661 14.3713 20.6287C14.9339 21.1913 15.25 21.9544 15.25 22.75C15.25 23.1478 15.408 23.5294 15.6893 23.8107C15.9706 24.092 16.3522 24.25 16.75 24.25H22.75V13.75C22.75 13.3522 22.592 12.9706 22.3107 12.6893C22.0294 12.408 21.6478 12.25 21.25 12.25H19.75" stroke="#2D3748" stroke-width="1.5" stroke-linecap="round" stroke-linejoin="round"/>
<path d="M10 27.25C11.2426 27.25 12.25 26.2426 12.25 25C12.25 23.7574 11.2426 22.75 10 22.75C8.75736 22.75 7.75 23.7574 7.75 25C7.75 26.2426 8.75736 27.25 10 27.25Z" stroke="#2D3748" stroke-width="1.5" stroke-linecap="round" stroke-linejoin="round"/>
<path d="M25.75 25C25.75 25.5967 25.5129 26.169 25.091 26.591C24.669 27.0129 24.0967 27.25 23.5 27.25C22.9033 27.25 22.331 27.0129 21.909 26.591C21.4871 26.169 21.25 25.5967 21.25 25V24.25H25.75V25Z" stroke="#2D3748" stroke-width="1.5" stroke-linecap="round" stroke-linejoin="round"/>
<path d="M26.5 24.25C26.6112 24.2498 26.7209 24.225 26.8213 24.1773C26.9217 24.1296 27.0103 24.0601 27.0806 23.974C27.1509 23.8879 27.2012 23.7873 27.2279 23.6794C27.2546 23.5715 27.2571 23.459 27.235 23.35C27.0103 22.3283 26.4429 21.4142 25.6271 20.7594C24.8113 20.1046 23.7961 19.7484 22.75 19.75V24.25H26.5Z" stroke="#2D3748" stroke-width="1.5" stroke-linecap="round" stroke-linejoin="round"/>
<path d="M25.75 15.25C25.75 15.6478 25.592 16.0294 25.3107 16.3107C25.0294 16.592 24.6478 16.75 24.25 16.75H22.75V13.75H24.25C24.6478 13.75 25.0294 13.908 25.3107 14.1893C25.592 14.4706 25.75 14.8522 25.75 15.25Z" stroke="#2D3748" stroke-width="1.5" stroke-linecap="round" stroke-linejoin="round"/>
<path d="M15.25 16.75H6.25C5.85218 16.75 5.47064 16.908 5.18934 17.1893C4.90804 17.4706 4.75 17.8522 4.75 18.25C4.75 18.6478 4.90804 19.0294 5.18934 19.3107C5.47064 19.592 5.85218 19.75 6.25 19.75H15.25C15.6478 19.75 16.0294 19.592 16.3107 19.3107C16.592 19.0294 16.75 18.6478 16.75 18.25C16.75 17.8522 16.592 17.4706 16.3107 17.1893C16.0294 16.908 15.6478 16.75 15.25 16.75Z" stroke="#2D3748" stroke-width="1.5" stroke-linecap="round" stroke-linejoin="round"/>
<path d="M14.8889 5H7.11111C6.49746 5 6 5.44772 6 6V13C6 13.5523 6.49746 14 7.11111 14H14.8889C15.5025 14 16 13.5523 16 13V6C16 5.44772 15.5025 5 14.8889 5Z" fill="url(#paint0_linear)" stroke="#2D3748" stroke-width="1.5"/>
<defs>
<linearGradient id="paint0_linear" x1="11" y1="5" x2="11" y2="14" gradientUnits="userSpaceOnUse">
<stop stop-color="#E2E8F0"/>
<stop offset="1" stop-color="#CBD5E0"/>
</linearGradient>
</defs>
</svg>
