<svg width="16" height="16" viewBox="0 0 16 16" fill="none" xmlns="http://www.w3.org/2000/svg">
<path fill-rule="evenodd" clip-rule="evenodd" d="M8.00065 14.6667C4.32065 14.6667 1.33398 11.6867 1.33398 8.00004C1.33398 4.32004 4.32065 1.33337 8.00065 1.33337C11.6873 1.33337 14.6673 4.32004 14.6673 8.00004C14.6673 11.6867 11.6873 14.6667 8.00065 14.6667ZM10.1273 10.4734C10.2073 10.52 10.294 10.5467 10.3874 10.5467C10.554 10.5467 10.7207 10.46 10.814 10.3C10.954 10.0667 10.8807 9.76004 10.6407 9.61338L8.26735 8.20004V5.12004C8.26735 4.84004 8.04068 4.62004 7.76735 4.62004C7.49402 4.62004 7.26735 4.84004 7.26735 5.12004V8.48671C7.26735 8.66004 7.36068 8.82004 7.51402 8.91338L10.1273 10.4734Z" fill="#1A202C"/>
</svg>
