<svg width="24" height="24" viewBox="0 0 24 24" fill="none" xmlns="http://www.w3.org/2000/svg">
<path d="M5.10156 14.895C5.10156 14.6484 4.98035 14.4176 4.77736 14.2776C2.92749 13.0018 1.75 10.9854 1.75 8.82031C1.75 4.99586 5.29756 1.75 9.9375 1.75C14.5774 1.75 18.125 4.99586 18.125 8.82031C18.125 12.6448 14.5774 15.8906 9.9375 15.8906C9.43347 15.8906 8.92141 15.8276 8.35474 15.7568C8.18696 15.7358 8.01702 15.7721 7.87248 15.8599L5.10156 17.5422V14.895Z" stroke="#18A43B" stroke-width="1.5" stroke-linecap="round" stroke-linejoin="round"/>
<path d="M20.1641 19.6323C21.8774 18.4507 23 16.5601 23 14.4922C23 12.3547 21.8533 10.4586 20.0647 9.25C18.2664 16.95 11.735 17.9583 8.69406 17.5C9.9408 19.6451 12.4842 21.1094 15.4375 21.1094C15.9102 21.1094 16.3828 21.0503 16.8555 20.9912L20.1641 23V19.6323Z" fill="#18A43B"/>
<path d="M6 7H14" stroke="#18A43B" stroke-width="1.5" stroke-linecap="round"/>
<path d="M6 10H11" stroke="#18A43B" stroke-width="1.5" stroke-linecap="round"/>
</svg>
