<svg width="24" height="24" viewBox="0 0 24 24" fill="none" xmlns="http://www.w3.org/2000/svg">
<path d="M12 22.5417C17.822 22.5417 22.5417 17.822 22.5417 12C22.5417 6.17801 17.822 1.45834 12 1.45834C6.17801 1.45834 1.45834 6.17801 1.45834 12C1.45834 17.822 6.17801 22.5417 12 22.5417Z" fill="#1877F2"/>
<path d="M16.1035 15.047L16.571 12H13.6473V10.0228C13.6473 9.18906 14.0556 8.37644 15.3651 8.37644H16.6943V5.78227C15.9138 5.65598 15.1252 5.58704 14.3348 5.57602C11.9267 5.57602 10.3528 7.03535 10.3528 9.67764V12H7.67609V15.047H10.3528V22.4134C11.4443 22.5845 12.5558 22.5845 13.6473 22.4134V15.047H16.1035Z" fill="white"/>
</svg>
