<svg width="88" height="88" viewBox="0 0 88 88" fill="none" xmlns="http://www.w3.org/2000/svg">
<path d="M44 28.416C37.07 28.416 35.75 31.3127 35.75 36.666V38.9393H52.25V36.666C52.25 31.3127 50.93 28.416 44 28.416Z" fill="#718096"/>
<path d="M43.9933 55.3606C45.063 55.3606 46.0889 54.9357 46.8453 54.1793C47.6017 53.4229 48.0266 52.397 48.0266 51.3273C48.0266 50.2576 47.6017 49.2317 46.8453 48.4753C46.0889 47.7189 45.063 47.2939 43.9933 47.2939C42.9236 47.2939 41.8977 47.7189 41.1413 48.4753C40.3849 49.2317 39.96 50.2576 39.96 51.3273C39.96 52.397 40.3849 53.4229 41.1413 54.1793C41.8977 54.9357 42.9236 55.3606 43.9933 55.3606Z" fill="#718096"/>
<path d="M43.9997 7.33301C23.7597 7.33301 7.33301 23.7597 7.33301 43.9997C7.33301 64.2397 23.7597 80.6663 43.9997 80.6663C64.2397 80.6663 80.6663 64.2397 80.6663 43.9997C80.6663 23.7597 64.2397 7.33301 43.9997 7.33301ZM63.7263 53.1663C63.7263 61.233 61.233 63.7263 53.1663 63.7263H34.833C26.7663 63.7263 24.273 61.233 24.273 53.1663V49.4997C24.273 43.2297 25.7763 40.333 30.2497 39.343V36.6663C30.2497 33.2563 30.2497 22.9163 43.9997 22.9163C57.7497 22.9163 57.7497 33.2563 57.7497 36.6663V39.343C62.223 40.333 63.7263 43.2297 63.7263 49.4997V53.1663Z" fill="#718096"/>
</svg>
