<svg width="36" height="36" viewBox="0 0 36 36" fill="none" xmlns="http://www.w3.org/2000/svg">
<path d="M0 18C0 8.05888 8.05888 0 18 0C27.9411 0 36 8.05888 36 18C36 27.9411 27.9411 36 18 36C8.05888 36 0 27.9411 0 18Z" fill="#2FBA77"/>
<mask id="mask0" mask-type="alpha" maskUnits="userSpaceOnUse" x="0" y="0" width="36" height="36">
<path d="M0 18C0 8.05888 8.05888 0 18 0C27.9411 0 36 8.05888 36 18C36 27.9411 27.9411 36 18 36C8.05888 36 0 27.9411 0 18Z" fill="#48BB78"/>
</mask>
<g mask="url(#mask0)">
<path d="M17.2 11.6378C18.1514 10.1216 18.0622 9.49727 17.7054 9.08105C17.3487 8.66484 16.8432 8.66484 15.8919 10.1811C15.7432 10.3892 15.6541 10.5973 15.5649 10.8054C15.6243 10.4189 15.6838 10.0027 15.6838 9.55673C15.7135 7.59457 15.327 7.14862 14.8514 7.14862C14.3757 7.14862 13.9892 7.56484 13.9595 9.527C13.9595 9.94321 14.0189 10.3594 14.0487 10.7459C13.9595 10.5378 13.8405 10.3594 13.7216 10.1811C12.7703 8.66484 12.2649 8.66484 11.9081 9.08105C11.5514 9.49727 11.4622 10.1216 12.4135 11.6378C13.3946 13.1243 16.2487 13.1243 17.2 11.6378Z" fill="white"/>
<path d="M28.2595 17.5838C28.0216 17.554 27.7541 17.5243 27.5162 17.554C27.4568 17.554 27.427 17.554 27.3676 17.554C27.0406 17.554 26.6541 17.4946 26.327 17.4054C26.2676 17.3756 26.1784 17.3459 26.1189 17.3459C26.0297 17.2865 25.9406 17.2567 25.8514 17.1973C25.5838 17.0486 25.346 16.8702 25.1081 16.6919C25.0487 16.6324 24.9892 16.5729 24.9297 16.5432C24.3946 15.9784 23.7406 15.5621 23.0865 15.354C21.0649 14.6405 18.6865 15.3838 17.5568 17.4648C17.4379 17.7027 17.3189 17.9405 17.2297 18.1784C17.1108 18.4162 17.0514 18.6838 16.9622 18.9513C16.9324 19.0702 16.9027 19.1892 16.873 19.2783C16.873 19.3081 16.873 19.3081 16.8433 19.3378C16.1595 22.3108 17.2892 25.4027 19.6973 27.0675C20.3216 27.4838 21.0352 27.8405 21.8081 28.0486C22.7595 28.554 23.7406 28.8216 24.7514 28.8513C24.9 28.8513 25.0189 28.8513 25.1676 28.8513C25.3162 28.8513 25.4054 28.8513 25.5541 28.8216C28.2892 28.6432 30.846 26.8594 31.9757 24.0648C32.0649 23.827 32.1541 23.5594 32.2433 23.2919C32.3027 23.1135 32.3325 22.9054 32.3919 22.727C32.7487 20.1702 30.846 17.8513 28.2595 17.5838Z" fill="white"/>
<path d="M28.2 16.8405C29.3 16.0676 29.3892 15.5919 29.2406 15.2054C29.0919 14.8189 28.7649 14.7 27.6946 15.473C27.546 15.5919 27.4271 15.7108 27.2784 15.8C27.4271 15.5622 27.5757 15.2946 27.6946 14.9676C28.2298 13.6 28.1108 13.2135 27.7838 13.0946C27.4568 12.9459 27.0703 13.1541 26.5054 14.4919C26.3865 14.7892 26.2973 15.0865 26.2379 15.354C26.2379 15.2054 26.2081 15.027 26.1784 14.8784C25.9406 13.5703 25.5838 13.4216 25.2271 13.6C24.8703 13.7784 24.6027 14.1946 24.8703 15.5027C25.1379 16.8405 27.1298 17.6432 28.2 16.8405Z" fill="white"/>
<path d="M18.8054 28.0486C17.7054 27.2459 16.8433 26.2054 16.2189 24.9567C15.1189 22.6973 15.0297 20.0216 15.9811 17.6432C16.1 17.3459 16.2189 17.0486 16.3676 16.781C17.2297 15.1162 18.8054 13.9865 20.6487 13.7486C21.4514 13.6297 22.2541 13.6892 23.027 13.8973C23.2351 13.9567 23.3541 13.6892 23.1757 13.5702C21.4216 12.2027 18.9541 11.8162 16.6946 12.8567C16.1297 13.0946 15.4757 13.2729 14.8216 13.2729C14.1378 13.2729 13.5135 13.1243 12.9189 12.8567C9.08379 11.1027 4.5946 13.5405 4.17839 17.7324C4.11893 18.0594 4.11893 18.4459 4.11893 18.8027C4.11893 24.7189 8.9946 29.4756 14.8216 28.8513C16.1892 29 17.527 28.8513 18.746 28.4351C18.8946 28.3459 18.9541 28.1378 18.8054 28.0486ZM8.7865 17.0189C7.68649 18.1783 6.34866 18.654 5.72433 18.0891C5.10001 17.5243 5.48649 16.127 6.55676 14.9675C7.65676 13.8081 8.9946 13.3324 9.61893 13.8973C10.2135 14.4621 9.85677 15.8594 8.7865 17.0189Z" fill="white"/>
</g>
</svg>
