<svg width="20" height="20" viewBox="0 0 20 20" fill="none" xmlns="http://www.w3.org/2000/svg">
<path d="M2.5 2.5L17.5 17.5" stroke="#4A5568" stroke-width="1.5" stroke-linecap="round" stroke-linejoin="round"/>
<path d="M8.81997 8.82251C8.50724 9.13502 8.33146 9.55897 8.3313 10.0011C8.33114 10.4432 8.50662 10.8673 8.81914 11.18C9.13165 11.4927 9.5556 11.6685 9.99771 11.6687C10.4398 11.6688 10.8639 11.4934 11.1766 11.1808" stroke="#4A5568" stroke-width="1.5" stroke-linecap="round" stroke-linejoin="round"/>
<path d="M14.4642 14.4575C13.1051 15.3742 11.6184 15.8333 10.0001 15.8333C6.66675 15.8333 3.88925 13.8892 1.66675 10C2.80758 8.00418 4.09425 6.52084 5.52675 5.54918M7.80258 4.47084C8.5171 4.26644 9.25691 4.16404 10.0001 4.16668C13.3334 4.16668 16.1109 6.11084 18.3334 10C17.6851 11.1342 16.9901 12.1033 16.2476 12.9067L7.80258 4.47084Z" stroke="#4A5568" stroke-width="1.5" stroke-linecap="round" stroke-linejoin="round"/>
</svg>
