<svg width="20" height="20" viewBox="0 0 20 20" fill="none" xmlns="http://www.w3.org/2000/svg">
<path d="M5.60866 16.4167C6.29199 15.6833 7.33366 15.7417 7.93366 16.5417L8.77533 17.6667C9.45033 18.5583 10.542 18.5583 11.217 17.6667L12.0587 16.5417C12.6587 15.7417 13.7003 15.6833 14.3837 16.4167C15.867 18 17.0753 17.475 17.0753 15.2583V5.86666C17.0837 2.50832 16.3003 1.66666 13.1503 1.66666H6.85033C3.70033 1.66666 2.91699 2.50832 2.91699 5.86666V15.25C2.91699 17.475 4.13366 17.9917 5.60866 16.4167Z" stroke="#292D32" stroke-linecap="round" stroke-linejoin="round"/>
<path d="M6.74705 9.16667H6.75454" stroke="#292D32" stroke-linecap="round" stroke-linejoin="round"/>
<path d="M9.08203 9.16666H13.6654" stroke="#292D32" stroke-linecap="round" stroke-linejoin="round"/>
<path d="M6.74705 5.83332H6.75454" stroke="#292D32" stroke-linecap="round" stroke-linejoin="round"/>
<path d="M9.08203 5.83334H13.6654" stroke="#292D32" stroke-linecap="round" stroke-linejoin="round"/>
</svg>
