<svg width="64" height="64" viewBox="0 0 64 64" fill="none" xmlns="http://www.w3.org/2000/svg">
<g clip-path="url(#clip0)">
<path d="M32 64C49.6731 64 64 49.6731 64 32C64 14.3269 49.6731 0 32 0C14.3269 0 0 14.3269 0 32C0 49.6731 14.3269 64 32 64Z" fill="url(#paint0_linear)"/>
<path d="M23.8232 46.4352L40.2775 62.8895C53.9053 59.2554 63.9999 46.839 63.9999 31.9999C63.9999 31.697 63.9999 31.3942 63.9999 31.0914L51.0788 19.1797L23.8232 46.4352Z" fill="#37A866"/>
<path d="M32.8078 39.1675C34.221 40.5807 34.221 43.0034 32.8078 44.4167L29.8803 47.3441C28.4671 48.7574 26.0444 48.7574 24.6311 47.3441L11.8109 34.423C10.3977 33.0097 10.3977 30.587 11.8109 29.1738L14.7384 26.2463C16.1516 24.8331 18.5743 24.8331 19.9876 26.2463L32.8078 39.1675Z" fill="url(#paint1_linear)"/>
<path d="M44.0126 16.8583C45.4259 15.445 47.8486 15.445 49.2618 16.8583L52.1893 19.7857C53.6025 21.199 53.6025 23.6217 52.1893 25.0349L29.9811 47.1422C28.5678 48.5554 26.1451 48.5554 24.7319 47.1422L21.8044 44.2147C20.3912 42.8015 20.3912 40.3788 21.8044 38.9655L44.0126 16.8583Z" fill="url(#paint2_linear)"/>
</g>
<defs>
<linearGradient id="paint0_linear" x1="19" y1="3" x2="45.5" y2="61" gradientUnits="userSpaceOnUse">
<stop stop-color="#5BDC91"/>
<stop offset="1" stop-color="#34AC66"/>
</linearGradient>
<linearGradient id="paint1_linear" x1="32.0001" y1="22.5002" x2="32.0001" y2="45.5002" gradientUnits="userSpaceOnUse">
<stop stop-color="white"/>
<stop offset="1" stop-color="#B1EFCB"/>
</linearGradient>
<linearGradient id="paint2_linear" x1="32.0001" y1="22.5002" x2="32.0001" y2="45.5002" gradientUnits="userSpaceOnUse">
<stop stop-color="white"/>
<stop offset="1" stop-color="#B1EFCB"/>
</linearGradient>
<clipPath id="clip0">
<rect width="64" height="64" fill="white"/>
</clipPath>
</defs>
</svg>
