<svg width="64" height="64" viewBox="0 0 64 64" fill="none" xmlns="http://www.w3.org/2000/svg">
<path d="M45.949 11.162C45.3924 11.7185 45.0859 12.4584 45.0859 13.2455C45.0859 14.0325 45.3925 14.7724 45.9488 15.3289L52.76 22.1401C53.3165 22.6966 54.0564 23.003 54.8433 23.003C55.6303 23.003 56.3702 22.6964 56.9266 22.1401C57.4832 21.5835 57.7897 20.8436 57.7897 20.0566C57.7897 19.2696 57.4832 18.5297 56.9268 17.9731L50.1156 11.1619C48.967 10.0132 47.0975 10.0135 45.949 11.162ZM55.601 19.2991C55.8032 19.5013 55.9147 19.7705 55.9147 20.0566C55.9147 20.3427 55.8032 20.6117 55.6008 20.8141C55.3986 21.0165 55.1294 21.1279 54.8433 21.1279C54.5572 21.1279 54.2882 21.0165 54.0858 20.8141L47.2746 14.0029C47.0724 13.8006 46.9609 13.5315 46.9609 13.2453C46.9609 12.9592 47.0724 12.6902 47.2748 12.4878C47.4835 12.2789 47.7578 12.1746 48.0323 12.1746C48.3066 12.1746 48.5811 12.2789 48.7898 12.4878L55.601 19.2991Z" fill="#A0AEC0"/>
<path d="M63.7721 28.4219C63.3801 26.4852 61.9819 24.9318 60.1933 24.2724C64.6286 16.8727 65.2436 9.94324 61.6952 6.39473C60.1387 4.83829 57.8843 4.04139 55.1711 4.09139C54.6535 4.10089 54.2415 4.52828 54.251 5.04593C54.2603 5.55782 54.6782 5.96634 55.188 5.96634C55.1939 5.96634 55.1997 5.96634 55.2056 5.96621C57.4253 5.92509 59.1648 6.51586 60.3694 7.72053C62.2324 9.58347 62.2826 12.414 61.9969 14.4604C61.5926 17.3545 60.2833 20.6183 58.2065 23.9271C52.7992 23.824 47.3686 23.7528 41.9291 23.7137C41.8938 20.5206 41.6963 17.2886 41.3371 14.0914C41.288 13.6549 40.9425 13.3109 40.5057 13.2639C40.2261 13.2339 39.9461 13.2071 39.6663 13.1794C43.6241 9.83261 47.8554 7.47514 51.7502 6.47023C52.2516 6.34085 52.5532 5.82958 52.4238 5.32819C52.2945 4.8268 51.7829 4.52516 51.2817 4.65466C49.7892 5.0398 48.2541 5.60782 46.7067 6.33998C47.0081 5.02955 47.1517 3.45862 46.5764 2.28645C46.2299 1.58005 45.6561 1.09841 44.9174 0.893524C43.8227 0.590263 42.1223 0.749519 40.2331 3.23149C40.1417 3.35162 40.0533 3.47262 39.9683 3.593C39.9581 3.55737 39.9477 3.52187 39.9369 3.48625C39.5657 2.25095 38.5951 0.178497 36.2638 0.178497C35.4541 0.178497 34.7482 0.501259 34.222 1.11178C33.5351 1.90894 33.2346 3.14711 33.1267 4.38115C32.3063 3.30211 31.3124 2.43483 30.2373 2.43483C29.5389 2.43483 28.902 2.79059 28.4441 3.43662C27.2378 5.13843 27.2203 8.82657 28.3409 12.6907C28.0602 12.6942 27.7797 12.7006 27.4992 12.7065C25.6624 10.5631 23.4421 9.08808 22.4709 8.49781V6.44273C22.9111 6.3656 23.2457 5.98246 23.2457 5.5202V2.87322C23.2457 1.44667 22.0851 0.286126 20.6586 0.286126H14.8286C13.4021 0.286126 12.2415 1.44667 12.2415 2.87322V5.5202C12.2415 5.98246 12.5764 6.3656 13.0166 6.44273L13.0158 8.49743C11.75 9.26621 8.36864 11.5322 6.47619 14.8224C6.09018 15.4907 5.91142 16.261 5.9598 17.0516C6.05055 18.4926 6.27594 21.2939 6.76583 23.9099C6.38194 23.9169 5.99768 23.9233 5.61404 23.9306C3.00994 23.9798 0.744606 25.8687 0.227837 28.4215C-0.0759247 29.9172 -0.0759247 31.434 0.227712 32.929C0.606976 34.8053 1.93615 36.3538 3.69172 37.0375C3.79472 38.9459 3.9711 41.66 4.25986 44.7447C3.48596 46.9366 2.72793 49.1293 1.99265 51.3175C1.36 53.2025 2.20703 55.2944 3.9641 56.1842C4.63262 56.5216 5.33553 56.7835 6.05493 56.9655C6.72733 58.8722 7.92737 60.5171 9.55343 61.7465C11.349 63.1041 13.4886 63.8216 15.7409 63.8216H48.2592C50.5116 63.8216 52.6512 63.1041 54.4467 61.7465C56.0729 60.517 57.273 58.8719 57.9454 56.965C58.6681 56.7814 59.3709 56.5192 60.0364 56.1828C61.7939 55.2947 62.6412 53.2025 62.0074 51.3163C61.2715 49.1267 60.5137 46.9341 59.7404 44.7438C60.0291 41.6593 60.2054 38.9453 60.3084 37.037C62.066 36.3517 63.3936 34.804 63.7722 32.9298C64.0758 31.4339 64.0758 29.9171 63.7721 28.4219ZM39.5547 15.0508C39.8547 17.9297 40.0214 20.8323 40.0542 23.7027C33.1002 23.6624 26.1348 23.6737 19.1878 23.738C19.2197 20.8564 19.3865 17.9419 19.6877 15.0507C26.2829 14.3927 32.959 14.3927 39.5547 15.0508ZM29.9738 4.52091C30.0421 4.42465 30.1432 4.3099 30.2373 4.3099C30.9123 4.3099 32.3282 6.23572 33.3351 8.52306C33.5008 8.92832 33.9278 9.16658 34.3629 9.0912C34.8121 9.0132 35.1401 8.62344 35.1401 8.16742C35.1401 8.11042 35.1348 8.05329 35.1243 7.99704C34.6556 4.82904 35.1765 2.87635 35.6425 2.3357C35.813 2.13782 35.9989 2.05344 36.2639 2.05344C38.4253 2.05344 38.4976 6.35385 38.4978 6.3961C38.4978 6.83924 38.8081 7.22151 39.2417 7.31301C39.6759 7.40464 40.1139 7.17976 40.2931 6.77437C40.9633 5.25819 42.8513 2.26708 44.4161 2.70059C44.6389 2.76234 44.7815 2.8856 44.8927 3.11261C45.2916 3.92539 45.0781 5.72308 44.3797 7.5599C41.9003 8.98532 39.4273 10.8086 37.0822 12.9571C34.8259 12.7917 32.5629 12.7015 30.2993 12.6865C28.993 8.59106 29.299 5.47294 29.9738 4.52091ZM20.5958 8.09817H14.8911L14.8918 6.45773H20.596V8.09817H20.5958ZM14.8286 2.16107H20.6586C21.0512 2.16107 21.3706 2.48046 21.3706 2.8731V4.58229H14.1166V2.87322C14.1166 2.48058 14.436 2.16107 14.8286 2.16107ZM8.6144 23.5944C8.13901 21.0699 7.91962 18.3377 7.83124 16.9355C7.80562 16.5152 7.8985 16.1088 8.10075 15.7587C9.88894 12.6496 13.3451 10.4794 14.2039 9.97311H21.2829C21.8308 10.2956 23.4388 11.2968 24.9955 12.7888C22.9042 12.8836 20.8163 13.0406 18.737 13.264C18.3001 13.3109 17.9545 13.6549 17.9055 14.0915C17.5449 17.3036 17.3472 20.5501 17.3131 23.757C14.4345 23.7876 11.5593 23.8264 8.69015 23.875C8.6594 23.7835 8.63265 23.6902 8.6144 23.5944ZM5.59079 37.4195C5.59866 37.4198 5.60641 37.4205 5.61429 37.4206L5.64429 37.4211C6.06468 37.429 6.48507 37.4359 6.90558 37.4434C6.52982 38.4534 6.15668 39.4646 5.78792 40.4772C5.70529 39.3351 5.64079 38.3047 5.59079 37.4195ZM48.2591 61.9464H15.7408C12.43 61.9464 9.43205 59.9592 8.087 56.9946C9.31867 56.6875 10.3867 55.8009 10.877 54.5506C11.4173 53.1735 11.9081 51.9047 12.3778 50.672C12.5622 50.1881 12.3194 49.6465 11.8355 49.4621C11.3516 49.2778 10.81 49.5205 10.6256 50.0043C10.1581 51.2314 9.66931 52.4944 9.13129 53.8661C8.74278 54.857 7.68374 55.4247 6.66545 55.1854C6.02568 55.0363 5.40103 54.8092 4.81001 54.5108C3.8786 54.0391 3.43158 52.9227 3.77009 51.9144C6.17381 44.7614 8.79578 37.5578 11.563 30.5039C11.9521 29.5127 13.0119 28.9447 14.0275 29.1826C14.6735 29.3342 15.2983 29.5617 15.8854 29.8592C16.8171 30.3297 17.2637 31.4457 16.9245 32.4551C15.3514 37.1357 13.6768 41.8622 11.947 46.5031C11.7661 46.9882 12.0129 47.5281 12.498 47.709C12.9833 47.89 13.5231 47.6431 13.704 47.158C14.8828 43.9953 16.035 40.793 17.1483 37.5924C22.078 37.6459 27.0385 37.6735 31.9999 37.6735C36.9617 37.6735 41.9228 37.646 46.8528 37.5924C48.832 43.2827 50.9326 48.9683 53.1228 54.5498C53.6132 55.8001 54.6814 56.6866 55.9132 56.9939C54.5684 59.9588 51.57 61.9464 48.2591 61.9464ZM59.1905 54.5093C58.601 54.8072 57.9761 55.0347 57.3331 55.1853C56.3172 55.4234 55.2574 54.8558 54.8684 53.8647C52.1068 46.827 49.4849 39.6233 47.0754 32.4539C46.7363 31.4449 47.1831 30.3289 48.1147 29.8581C48.704 29.5602 49.329 29.3327 49.9721 29.1821C50.1279 29.1456 50.2848 29.1279 50.4401 29.1279C51.2975 29.1279 52.1075 29.6636 52.4368 30.5026C55.1984 37.5404 57.8202 44.744 60.2297 51.9135C60.5688 52.9226 60.1221 54.0385 59.1905 54.5093ZM57.0951 37.4434C57.5148 37.4359 57.9347 37.429 58.3545 37.4211L58.388 37.4205C58.3951 37.4204 58.4022 37.4196 58.4094 37.4195C58.3592 38.3043 58.2947 39.3343 58.2122 40.476C57.8435 39.4635 57.4705 38.4528 57.0951 37.4434ZM61.9342 32.5575C61.6507 33.9603 60.5697 35.0897 59.1744 35.4359C58.9114 35.5029 58.6334 35.5399 58.3506 35.5458L58.3195 35.5464C57.6787 35.5584 57.0381 35.5696 56.3973 35.5804C55.6698 33.6502 54.9316 31.7275 54.1822 29.8177C53.4556 27.9653 51.461 26.9072 49.5443 27.3565C48.7564 27.5411 47.9907 27.8198 47.2688 28.1848C45.5114 29.0729 44.6641 31.1651 45.2979 33.0513C45.5971 33.9418 45.8997 34.8327 46.2053 35.7237C36.7709 35.8217 27.228 35.8217 17.7936 35.7237C18.0994 34.8324 18.4029 33.9415 18.7015 33.0526C19.3359 31.1658 18.4885 29.0734 16.7316 28.186C16.0125 27.8218 15.2469 27.5429 14.4554 27.357C12.5387 26.9081 10.5447 27.9664 9.81732 29.8189C9.06767 31.7295 8.32976 33.6519 7.60286 35.5806C6.96159 35.5697 6.32019 35.5584 5.67891 35.5466L5.65129 35.5461C5.36615 35.5401 5.08839 35.5031 4.81988 35.4347C3.43008 35.0898 2.34879 33.9604 2.06515 32.5567C1.81177 31.3085 1.81177 30.0429 2.06528 28.7942C2.40929 27.0951 3.9166 25.8382 5.64954 25.8055C23.1343 25.4698 40.8652 25.4698 58.3502 25.8055C60.0829 25.8382 61.5902 27.0951 61.9344 28.7948C62.188 30.0427 62.188 31.3084 61.9342 32.5575Z" fill="#A0AEC0"/>
<path d="M19.6078 40.8829H19.5446C17.3975 40.888 15.6648 42.5827 15.6001 44.741C15.5239 47.283 15.5239 49.8609 15.6001 52.4028C15.6648 54.561 17.3974 56.2557 19.5453 56.261H19.6078C21.7549 56.2557 23.4876 54.5612 23.5524 52.4028C23.6285 49.8609 23.6285 47.283 23.5524 44.741C23.4875 42.5826 21.7549 40.888 19.6078 40.8829ZM21.678 52.3466C21.6444 53.4684 20.7136 54.3831 19.6041 54.3858H19.5491C18.4387 54.3831 17.5079 53.4682 17.4743 52.3466C17.3991 49.8419 17.3991 47.3019 17.4743 44.7972C17.5079 43.6754 18.4387 42.7606 19.5497 42.758H19.6026H19.6032C20.7136 42.7606 21.6444 43.6754 21.678 44.7972C21.7532 47.3019 21.7532 49.8419 21.678 52.3466Z" fill="#A0AEC0"/>
<path d="M32.0317 40.8829H31.9684C29.8213 40.888 28.0886 42.5827 28.0239 44.741C27.9478 47.283 27.9478 49.8609 28.0239 52.4028C28.0886 54.561 29.8212 56.2557 31.9692 56.261H32.0317C34.1789 56.2557 35.9114 54.561 35.9762 52.4028C36.0523 49.8609 36.0523 47.283 35.9762 44.741C35.9114 42.5827 34.1789 40.888 32.0317 40.8829ZM34.1019 52.3466C34.0682 53.4684 33.1376 54.3831 32.028 54.3858H31.973C30.8626 54.3831 29.9318 53.4682 29.8982 52.3466C29.8231 49.8419 29.8231 47.3019 29.8982 44.7972C29.9318 43.6754 30.8626 42.7606 31.9737 42.758H32.0265H32.0272C33.1376 42.7606 34.0682 43.6754 34.1019 44.7972C34.177 47.3019 34.177 49.8419 34.1019 52.3466Z" fill="#A0AEC0"/>
<path d="M44.4554 40.8829H44.3922C42.245 40.888 40.5125 42.5827 40.4477 44.741C40.3716 47.283 40.3716 49.8609 40.4477 52.4028C40.5125 54.561 42.245 56.2558 44.393 56.261H44.4555C46.6027 56.2557 48.3353 54.561 48.4 52.4028C48.4761 49.8609 48.4761 47.283 48.4 44.741C48.3353 42.5827 46.6027 40.888 44.4554 40.8829ZM46.5257 52.3466C46.4921 53.4684 45.5614 54.3831 44.4517 54.3858H44.3969C43.2864 54.3831 42.3558 53.4682 42.3222 52.3466C42.2469 49.8419 42.2469 47.3019 42.3222 44.7972C42.3558 43.6754 43.2864 42.7606 44.3975 42.758H44.4504H44.4511C45.5615 42.7606 46.4922 43.6754 46.5258 44.7972C46.6008 47.3019 46.6008 49.8419 46.5257 52.3466Z" fill="#A0AEC0"/>
</svg>
