<svg width="40" height="52" viewBox="0 0 40 52" fill="none" xmlns="http://www.w3.org/2000/svg">
<ellipse cx="20" cy="49.5" rx="17" ry="2.5" fill="#145DCA"/>
<path d="M40 19.8772C40 32.3654 26.3922 45.2471 21.6268 49.3783C20.6927 50.1889 19.2994 50.2046 18.3416 49.4098C13.5444 45.4281 0 33.0028 0 19.8772C0 8.89991 8.9531 0 19.996 0C31.039 0 40 8.89991 40 19.8772Z" fill="#2FBA77"/>
<path d="M19.9801 35.3084C28.8245 35.3084 35.9943 28.1812 35.9943 19.3893C35.9943 10.5974 28.8245 3.47021 19.9801 3.47021C11.1356 3.47021 3.96582 10.5974 3.96582 19.3893C3.96582 28.1812 11.1356 35.3084 19.9801 35.3084Z" fill="white"/>
<path d="M29.7127 16.5031L29.4408 13.9062C29.047 11.075 27.7627 9.92188 25.0158 9.92188H22.8033H21.4158H18.5658H17.1783H14.9283C12.172 9.92188 10.897 11.075 10.4939 13.9344L10.2408 16.5125C10.147 17.5156 10.4189 18.4906 11.0095 19.25C11.722 20.1781 12.8189 20.7031 14.0377 20.7031C15.2189 20.7031 16.3533 20.1125 17.0658 19.1656C17.7033 20.1125 18.7908 20.7031 20.0002 20.7031C21.2095 20.7031 22.2689 20.1406 22.9158 19.2031C23.6377 20.1312 24.7533 20.7031 25.9158 20.7031C27.1627 20.7031 28.2877 20.15 28.9908 19.175C29.5533 18.425 29.8064 17.4781 29.7127 16.5031Z" fill="#2FBA77"/>
<path d="M19.3904 24.3687C18.1998 24.4906 17.2998 25.5031 17.2998 26.7031V29.2719C17.2998 29.525 17.5061 29.7312 17.7592 29.7312H22.2311C22.4842 29.7312 22.6904 29.525 22.6904 29.2719V27.0312C22.6998 25.0719 21.5467 24.1437 19.3904 24.3687Z" fill="#2FBA77"/>
<path d="M28.7846 22.25V25.0437C28.7846 27.6312 26.6846 29.7312 24.0971 29.7312C23.8439 29.7312 23.6377 29.5249 23.6377 29.2718V27.0312C23.6377 25.8312 23.2721 24.8937 22.5596 24.2562C21.9314 23.6843 21.0783 23.4031 20.0189 23.4031C19.7846 23.4031 19.5502 23.4125 19.2971 23.4406C17.6283 23.6093 16.3627 25.0156 16.3627 26.7031V29.2718C16.3627 29.5249 16.1564 29.7312 15.9033 29.7312C13.3158 29.7312 11.2158 27.6312 11.2158 25.0437V22.2687C11.2158 21.6125 11.8627 21.1718 12.4721 21.3875C12.7252 21.4718 12.9783 21.5375 13.2408 21.575C13.3533 21.5937 13.4752 21.6125 13.5877 21.6125C13.7377 21.6312 13.8877 21.6406 14.0377 21.6406C15.1252 21.6406 16.1939 21.2375 17.0377 20.5437C17.8439 21.2375 18.8939 21.6406 20.0002 21.6406C21.1158 21.6406 22.1471 21.2562 22.9533 20.5625C23.7971 21.2468 24.8471 21.6406 25.9158 21.6406C26.0846 21.6406 26.2533 21.6312 26.4127 21.6125C26.5252 21.6031 26.6283 21.5937 26.7314 21.575C27.0221 21.5375 27.2846 21.4531 27.5471 21.3687C28.1564 21.1625 28.7846 21.6125 28.7846 22.25Z" fill="#2FBA77"/>
</svg>
