<svg width="20" height="20" viewBox="0 0 20 20" fill="none" xmlns="http://www.w3.org/2000/svg">
<path d="M2.50879 9.35001V13.0917C2.50879 16.8333 4.00879 18.3333 7.75046 18.3333H12.2421C15.9838 18.3333 17.4838 16.8333 17.4838 13.0917V9.35001" stroke="#1A202C" stroke-linecap="round" stroke-linejoin="round"/>
<path d="M9.99975 9.99999C11.5247 9.99999 12.6497 8.75832 12.4997 7.23332L11.9497 1.66666H8.05808L7.49975 7.23332C7.34975 8.75832 8.47475 9.99999 9.99975 9.99999Z" stroke="#1A202C" stroke-linecap="round" stroke-linejoin="round"/>
<path d="M15.2587 9.99999C16.942 9.99999 18.1753 8.63332 18.0087 6.95832L17.7753 4.66666C17.4753 2.49999 16.642 1.66666 14.4587 1.66666H11.917L12.5003 7.50832C12.642 8.88332 13.8837 9.99999 15.2587 9.99999Z" stroke="#1A202C" stroke-linecap="round" stroke-linejoin="round"/>
<path d="M4.69966 9.99999C6.07466 9.99999 7.31632 8.88332 7.44966 7.50832L7.63299 5.66666L8.03299 1.66666H5.49132C3.30799 1.66666 2.47466 2.49999 2.17466 4.66666L1.94966 6.95832C1.78299 8.63332 3.01632 9.99999 4.69966 9.99999Z" stroke="#1A202C" stroke-linecap="round" stroke-linejoin="round"/>
<path d="M10.0003 14.1667C8.60866 14.1667 7.91699 14.8583 7.91699 16.25V18.3333H12.0837V16.25C12.0837 14.8583 11.392 14.1667 10.0003 14.1667Z" stroke="#1A202C" stroke-linecap="round" stroke-linejoin="round"/>
</svg>
