<?xml version="1.0" encoding="UTF-8" standalone="no"?> <svg width="64" height="64" viewBox="0 0 64 64" fill="none" xmlns="http://www.w3.org/2000/svg">
<path d="M59.36 46.63C57.9645 45.2395 56.1523 44.3439 54.2 44.08L51.36 35H53C53.5299 34.9984 54.0377 34.7872 54.4125 34.4125C54.7872 34.0377 54.9984 33.53 55 33V29.28C55.0001 28.9756 54.9308 28.6751 54.7972 28.4015C54.6636 28.128 54.4694 27.8885 54.2292 27.7014C53.989 27.5143 53.7093 27.3845 53.4114 27.3218C53.1135 27.2592 52.8052 27.2654 52.51 27.34L45.88 29H40.76L39.6 24.94C40.8099 24.7953 41.9251 24.2132 42.7355 23.3033C43.546 22.3934 43.9957 21.2185 44 20V18H44.92C45.0631 18 45.2046 17.9692 45.3348 17.9098C45.4651 17.8504 45.581 17.7638 45.6749 17.6557C45.7687 17.5476 45.8383 17.4207 45.8789 17.2834C45.9194 17.1461 45.93 17.0017 45.91 16.86C45.7377 15.6526 45.2915 14.5005 44.6057 13.4919C43.9198 12.4833 43.0124 11.6449 41.9529 11.0407C40.8933 10.4366 39.7096 10.0827 38.4923 10.0061C37.275 9.92958 36.0564 10.1324 34.9295 10.599C33.8026 11.0657 32.7973 11.7838 31.9905 12.6986C31.1837 13.6133 30.5967 14.7004 30.2745 15.8768C29.9523 17.0531 29.9033 18.2876 30.1313 19.4858C30.3593 20.684 30.8582 21.8142 31.59 22.79C31.8532 23.1364 32.1442 23.4608 32.46 23.76L30.99 26.31C29.698 28.5777 29.0126 31.1402 29 33.75V36H27.82C27.9364 35.6793 27.9973 35.3412 28 35V17C27.9976 16.2051 27.6808 15.4434 27.1187 14.8813C26.5566 14.3192 25.7949 14.0024 25 14H7C6.20508 14.0024 5.4434 14.3192 4.8813 14.8813C4.31921 15.4434 4.00237 16.2051 4 17V35C4.00237 35.7949 4.31921 36.5566 4.8813 37.1187C5.4434 37.6808 6.20508 37.9976 7 38H16.18C16.0154 38.4518 15.9626 38.9367 16.026 39.4133C16.0895 39.89 16.2673 40.3442 16.5444 40.7372C16.8215 41.1302 17.1895 41.4503 17.6171 41.6702C18.0447 41.8901 18.5192 42.0032 19 42H21.68C20.3722 42.9167 19.2797 44.1072 18.4784 45.4887C17.6771 46.8702 17.1863 48.4097 17.04 50H12V52H16.99L16.98 55C16.9787 55.1317 17.0036 55.2623 17.0534 55.3843C17.1032 55.5062 17.1768 55.617 17.2699 55.7101C17.363 55.8032 17.4738 55.8768 17.5957 55.9266C17.7177 55.9764 17.8483 56.0014 17.98 56H21C21 57.5913 21.6321 59.1174 22.7574 60.2427C23.8826 61.3679 25.4087 62 27 62C28.5913 62 30.1174 61.3679 31.2426 60.2427C32.3679 59.1174 33 57.5913 33 56H49C49 57.5913 49.6321 59.1174 50.7574 60.2427C51.8826 61.3679 53.4087 62 55 62C56.5913 62 58.1174 61.3679 59.2426 60.2427C60.3679 59.1174 61 57.5913 61 56C61.0009 55.318 60.8825 54.6412 60.65 54H61C61.2652 54 61.5196 53.8947 61.7071 53.7071C61.8946 53.5196 62 53.2652 62 53C62.0035 51.8163 61.772 50.6438 61.3188 49.5503C60.8656 48.4568 60.1998 47.4642 59.36 46.63ZM53 29.28V33H48.82C48.9769 32.5739 49.0323 32.1171 48.982 31.6658C48.9317 31.2145 48.7769 30.7811 48.53 30.4L53 29.28ZM44 31H46C46.2652 31 46.5196 31.1054 46.7071 31.2929C46.8946 31.4804 47 31.7348 47 32C47 32.2652 46.8946 32.5196 46.7071 32.7071C46.5196 32.8947 46.2652 33 46 33H43.99L44 31ZM15.81 33.92C14.0802 33.6876 12.4553 32.9573 11.1331 31.818C9.81097 30.6786 8.84861 29.1794 8.36326 27.5029C7.8779 25.8264 7.89048 24.045 8.39947 22.3755C8.90845 20.706 9.89188 19.2206 11.23 18.1C11.4228 17.9417 11.6673 17.8603 11.9165 17.8713C12.1657 17.8824 12.402 17.9852 12.58 18.16L16.21 21.79C16.3974 21.9788 16.5025 22.234 16.5025 22.5C16.5025 22.766 16.3974 23.0212 16.21 23.21L14.42 24.99C14.2923 25.1106 14.1997 25.2636 14.1522 25.4327C14.1046 25.6017 14.1039 25.7805 14.15 25.95C14.3 26.3911 14.5493 26.7918 14.8788 27.1213C15.2082 27.4507 15.6089 27.7 16.05 27.85C16.2195 27.8961 16.3983 27.8954 16.5674 27.8478C16.7364 27.8003 16.8894 27.7077 17.01 27.58L18.79 25.79C18.9788 25.6027 19.234 25.4975 19.5 25.4975C19.766 25.4975 20.0212 25.6027 20.21 25.79L23.84 29.42C24.0148 29.598 24.1176 29.8343 24.1287 30.0835C24.1398 30.3327 24.0583 30.5772 23.9 30.77C23.0563 31.783 21.9997 32.5976 20.8053 33.1559C19.611 33.7142 18.3084 34.0024 16.99 34C16.5954 33.9983 16.2013 33.9715 15.81 33.92V33.92ZM19 40C18.7348 40 18.4804 39.8947 18.2929 39.7071C18.1054 39.5196 18 39.2652 18 39C18 38.7348 18.1054 38.4804 18.2929 38.2929C18.4804 38.1054 18.7348 38 19 38H29V39C29.0027 39.3412 29.0636 39.6793 29.18 40H19ZM27 60C25.9391 60 24.9217 59.5786 24.1716 58.8284C23.4214 58.0783 23 57.0609 23 56H26V57H28V56H31C31 57.0609 30.5786 58.0783 29.8284 58.8284C29.0783 59.5786 28.0609 60 27 60ZM37 46H26C24.6739 46 23.4021 46.5268 22.4645 47.4645C21.5268 48.4022 21 49.6739 21 51V54H18.98L18.99 50.99C18.994 48.6052 19.9438 46.3194 21.631 44.634C23.3183 42.9486 25.6052 42.0013 27.99 42H37V46ZM33.84 31.25L37.03 34.45L36.36 36H31V33.76C31.013 31.4939 31.6088 29.2693 32.73 27.3L34.07 24.96C34.9321 25.4491 35.8786 25.7714 36.86 25.91C36.9062 25.9183 36.9531 25.9217 37 25.92C37.2427 25.9176 37.4766 25.829 37.66 25.67C37.68 25.65 37.69 25.62 37.71 25.6L38 26.63C37.3809 26.1239 36.5907 25.8755 35.7934 25.9364C34.9961 25.9973 34.2528 26.3627 33.7177 26.957C33.1826 27.5512 32.8968 28.3287 32.9196 29.128C32.9424 29.9273 33.272 30.6872 33.84 31.25V31.25ZM38 18H39V20H41V18H42V20C41.9976 20.7949 41.6808 21.5566 41.1187 22.1187C40.5566 22.6808 39.7949 22.9976 39 23H38V18ZM46 54H39V52H46V54ZM39 50V48H42C42.2652 48 42.5196 48.1054 42.7071 48.2929C42.8946 48.4804 43 48.7348 43 49V50H39ZM46.28 50H45V49C44.9983 48.3798 44.8053 47.7753 44.4474 47.2688C44.0895 46.7624 43.584 46.3787 43 46.17V41C42.9944 39.7679 42.534 38.5813 41.7072 37.6678C40.8804 36.7542 39.7454 36.1781 38.52 36.05L38.97 35H46.17L47.97 44.93L46.28 50ZM49.59 54H48V51.16L49.95 45.32C50 45.1582 50.0103 44.9867 49.98 44.82L48.2 35H49.26L53.32 47.99C53.4859 48.5112 53.5046 49.0681 53.374 49.5993C53.2434 50.1304 52.9686 50.6151 52.58 51L49.59 54ZM55 60C53.9391 60 52.9217 59.5786 52.1716 58.8284C51.4214 58.0783 51 57.0609 51 56C51.0069 55.7786 51.0303 55.558 51.07 55.34L52.41 54H58.46C58.815 54.6067 59.0014 55.2971 59 56C59 57.0609 58.5786 58.0783 57.8284 58.8284C57.0783 59.5786 56.0609 60 55 60Z" fill="black"/>
<path d="M21.74 30.15C21.353 30.4995 20.9307 30.8078 20.48 31.07L18.41 29C18.42 29 18.42 29 18.42 28.99L19.5 27.91L21.74 30.15Z" fill="black"/>
<path d="M14.09 22.5L13.01 23.58C13 23.58 13 23.58 13 23.59L10.93 21.52C11.1898 21.0708 11.4984 20.6516 11.85 20.27L14.09 22.5Z" fill="black"/>
<path d="M18.43 31.85C17.6504 32.0106 16.8495 32.041 16.06 31.94C14.5436 31.728 13.1377 31.0277 12.055 29.945C10.9723 28.8623 10.272 27.4564 10.06 25.94C9.959 25.1505 9.98941 24.3496 10.15 23.57L12.13 25.54C12.1033 25.8952 12.1475 26.2521 12.26 26.59C12.5049 27.3233 12.917 27.9896 13.4637 28.5363C14.0104 29.083 14.6767 29.4951 15.41 29.74C15.7479 29.8525 16.1048 29.8967 16.46 29.87L18.43 31.85Z" fill="black"/>
<path d="M56 55H54V57H56V55Z" fill="black"/>
<path d="M15 54H6V56H15V54Z" fill="black"/>
<path d="M4 54H2V56H4V54Z" fill="black"/>
<path d="M20 58H14V60H20V58Z" fill="black"/>
<path d="M12 58H10V60H12V58Z" fill="black"/>
<path d="M10 50H8V52H10V50Z" fill="black"/>
<path d="M8 58H6V60H8V58Z" fill="black"/>
<path d="M21 4H12V6H21V4Z" fill="black"/>
<path d="M10 4H8V6H10V4Z" fill="black"/>
<path d="M26 8H20V10H26V8Z" fill="black"/>
<path d="M18 8H16V10H18V8Z" fill="black"/>
<path d="M14 8H12V10H14V8Z" fill="black"/>
</svg>
