<svg width="20" height="20" viewBox="0 0 20 20" fill="none" xmlns="http://www.w3.org/2000/svg">
<path d="M7.22656 11.9415C7.22656 13.0165 8.05156 13.8832 9.07656 13.8832H11.1682C12.0599 13.8832 12.7849 13.1249 12.7849 12.1915C12.7849 11.1748 12.3432 10.8165 11.6849 10.5832L8.32656 9.41652C7.66823 9.18318 7.22656 8.82485 7.22656 7.80818C7.22656 6.87485 7.95156 6.11652 8.84323 6.11652H10.9349C11.9599 6.11652 12.7849 6.98318 12.7849 8.05818" stroke="#1A202C" stroke-linecap="round" stroke-linejoin="round"/>
<path d="M10 5V15" stroke="#1A202C" stroke-linecap="round" stroke-linejoin="round"/>
<path d="M10.0003 18.3334C14.6027 18.3334 18.3337 14.6024 18.3337 10C18.3337 5.39765 14.6027 1.66669 10.0003 1.66669C5.39795 1.66669 1.66699 5.39765 1.66699 10C1.66699 14.6024 5.39795 18.3334 10.0003 18.3334Z" stroke="#1A202C" stroke-linecap="round" stroke-linejoin="round"/>
</svg>
