<svg width="56" height="56" viewBox="0 0 56 56" fill="none" xmlns="http://www.w3.org/2000/svg">
<g clip-path="url(#clip0)">
<path fill-rule="evenodd" clip-rule="evenodd" d="M14.2162 24.9665H-0.000144958V29.9051C-0.000144958 31.1261 0.996369 32.1234 2.21645 32.1234H7.33006L10.3803 33.6642L14.2163 32.1234V24.9665H14.2162Z" fill="#37D88A"/>
<path fill-rule="evenodd" clip-rule="evenodd" d="M11.9997 17.7999H2.21656C0.996484 17.7999 -3.05176e-05 18.7972 -3.05176e-05 20.0182V23.6879H14.2163V20.0182C14.2163 18.7972 13.2198 17.7999 11.9997 17.7999Z" fill="#37D88A"/>
<path fill-rule="evenodd" clip-rule="evenodd" d="M14.2163 22.5819H-3.05176e-05V26.0693H14.2163V22.5819Z" fill="#2FBA77"/>
<path fill-rule="evenodd" clip-rule="evenodd" d="M14.2166 32.1236H7.3303V35.2913C7.3303 36.0521 7.95308 36.6721 8.71007 36.6721H31.1309C31.1309 34.6807 31.1309 33.6674 29.6074 33.6674L26.5731 33.6642C24.6631 33.661 23.4111 33.1719 22.7116 32.1234H14.2166V32.1236Z" fill="#6F6571"/>
<path fill-rule="evenodd" clip-rule="evenodd" d="M28.4261 36.6722H8.70975C7.55355 38.6861 6.62408 41.1059 7.4258 45.7344C8.76728 41.1697 22.3928 42.9918 23.7917 48.2596H38.8257C39.3942 46.9714 39.9308 45.6992 40.4004 44.4142H36.162C27.5894 41.1793 30.3458 42.6209 28.4261 36.6722Z" fill="#37D88A"/>
<path fill-rule="evenodd" clip-rule="evenodd" d="M29.6433 24.2984C29.3494 25.8456 28.9502 27.3704 28.503 28.6681L24.169 30.3663L19.3364 28.6681C19.5057 19.5228 22.9233 15.1372 25.8298 13.7179C26.8774 12.9203 27.9506 12.6198 27.9506 12.6198C27.9506 12.6198 29.3623 14.8783 29.4358 14.8783C29.9787 16.1697 30.1831 17.8543 30.148 19.6731L29.6433 24.2984Z" fill="#E2E8F0"/>
<path fill-rule="evenodd" clip-rule="evenodd" d="M19.3363 28.668H28.503C30.6143 28.8982 33.2109 30.5061 33.2109 35.4862V40.7062L31.1306 41.9453L28.4264 40.7062V36.6721C28.4264 34.6807 28.4264 33.6673 26.9029 33.6673L23.8687 33.6642C21.9586 33.661 20.7066 33.1719 20.0072 32.1234C19.4673 31.3148 19.2597 30.1736 19.3363 28.668Z" fill="#2FBA77"/>
<path fill-rule="evenodd" clip-rule="evenodd" d="M23.792 48.2597C23.792 43.532 20.0455 39.7665 15.4238 39.7665C11.6645 39.7665 8.48332 42.2598 7.42611 45.7344C7.20889 46.4472 7.08114 47.2048 7.05882 47.9911C7.0492 48.298 7.26007 48.2597 7.54751 48.2597C12.9612 48.2597 18.3783 48.2565 23.792 48.2597Z" fill="#2FBA77"/>
<path fill-rule="evenodd" clip-rule="evenodd" d="M21.687 48.2597H8.94942C9.13142 51.6927 11.9134 54.4226 15.3182 54.4226C18.7231 54.4226 21.505 51.6927 21.687 48.2597Z" fill="#6F6571"/>
<path fill-rule="evenodd" clip-rule="evenodd" d="M54.0323 46.9011L43.0738 49.4232C43.7701 52.4504 46.7884 54.3427 49.813 53.6458C52.8409 52.949 54.7286 49.9283 54.0323 46.9011Z" fill="#6F6571"/>
<path fill-rule="evenodd" clip-rule="evenodd" d="M54.8533 43.8292C53.3042 41.5756 50.6149 40.2683 47.8042 40.5496C42.8471 41.598 41.2342 44.5612 40.9116 48.2565C40.918 48.7583 40.9723 49.2634 41.0809 49.7685C41.1129 49.9091 41.2055 49.8516 41.3588 49.8164L43.0741 49.4232L54.0326 46.9011L54.8534 46.7125L56 46.4472C55.7796 45.4818 55.3836 44.5996 54.8533 43.8292Z" fill="#E2E8F0"/>
<path fill-rule="evenodd" clip-rule="evenodd" d="M47.814 40.5368L43.3871 25.2191L41.3941 24.3272L39.1647 25.2191C42.0935 33.3383 41.276 39.0057 39.2988 44.4143C38.8261 45.6993 38.2895 46.9715 37.7241 48.2597H40.9086L47.814 40.5368Z" fill="#2FBA77"/>
<path fill-rule="evenodd" clip-rule="evenodd" d="M34.1053 8.04408L28.9119 6.93808C28.3849 6.98599 26.8773 8.25189 26.8773 9.04464L27.9824 14.6641C28.4423 14.8016 28.931 14.8783 29.4357 14.8783C32.2017 14.8783 34.4438 12.6312 34.4438 9.86287C34.4438 9.22041 34.3257 8.60659 34.1053 8.04408Z" fill="#F9CDAF"/>
<path fill-rule="evenodd" clip-rule="evenodd" d="M35.7822 8.04409C35.7822 4.47037 32.9524 1.57751 29.4582 1.57751C25.964 1.57751 23.1341 4.47037 23.1341 8.04409C23.1341 10.4031 24.0923 12.5 25.8299 13.7179C26.4495 14.1559 27.1713 14.4787 27.9826 14.6641V9.04455C27.9826 8.2518 28.385 8.092 28.9121 8.04398H34.1054H35.7822V8.04409Z" fill="#2FBA77"/>
<path fill-rule="evenodd" clip-rule="evenodd" d="M33.211 40.7062H28.4264V43.7206C28.4264 44.3663 28.7777 44.4142 29.2951 44.4142H36.1621C36.2996 41.3902 34.4694 40.7062 33.211 40.7062Z" fill="#6F6571"/>
<path fill-rule="evenodd" clip-rule="evenodd" d="M44.3097 20.3955L38.3338 22.3709C38.0399 22.633 38.3721 25.3053 38.5701 25.219H43.3867H45.5171V20.8206C45.5171 19.9544 45.0667 20.1461 44.3097 20.3955Z" fill="#37D88A"/>
<path fill-rule="evenodd" clip-rule="evenodd" d="M35.5491 25.219H36.0506H38.5706C40.1931 25.219 40.241 22.5275 38.3342 22.3709L35.5491 22.1471L34.8017 23.7294L35.5491 25.219Z" fill="#F9CDAF"/>
<path fill-rule="evenodd" clip-rule="evenodd" d="M30.1478 19.673L29.1481 18.8131C26.6441 16.6555 23.4788 20.2964 26.8261 22.47L29.6431 24.2984L31.0613 25.219H35.5488V22.1471L32.7605 21.9201L30.1478 19.673Z" fill="#2FBA77"/>
</g>
<defs>
<clipPath id="clip0">
<rect width="56" height="56" fill="white" transform="matrix(-1 0 0 1 56 0)"/>
</clipPath>
</defs>
</svg>
