<svg width="100" height="83" viewBox="0 0 100 83" fill="none" xmlns="http://www.w3.org/2000/svg">
<rect x="20" y="31" width="49" height="44" rx="2" fill="#F5F5F5" stroke="#EBE0DB" stroke-linecap="round" stroke-dasharray="3 3"/>
<rect x="42" y="15" width="36" height="48" rx="2" fill="#EBE0DB"/>
<rect x="25.5" y="22.5" width="35" height="47" rx="1.5" fill="white" stroke="#BDBDBD"/>
<path d="M20.0019 22.5624C19.8139 21.8107 19.7404 21.1968 19.7814 20.7208C19.8223 20.2447 20.0142 19.6777 20.3568 19.0197L21.2513 17.4152C21.6195 16.6762 21.7117 15.964 21.5281 15.2786C21.3511 14.6183 21.04 14.149 20.5947 13.8706C20.1478 13.586 19.5941 13.5321 18.9338 13.709C18.2924 13.8809 17.8222 14.1889 17.5233 14.6329C17.2244 15.077 17.1516 15.5851 17.305 16.1574L15.5599 16.625C15.2995 15.6029 15.4412 14.6853 15.985 13.8723C16.5334 13.0514 17.3798 12.4876 18.5244 12.1809C19.7129 11.8624 20.7233 11.9355 21.5554 12.4C22.3922 12.8565 22.9597 13.6413 23.258 14.7544C23.5529 15.8549 23.3341 17.0762 22.6019 18.4182L21.8466 19.7124C21.5241 20.3448 21.4908 21.1389 21.747 22.0948L20.0019 22.5624ZM20.7276 25.5728C20.6518 25.2899 20.6735 25.0313 20.7928 24.7971C20.9166 24.555 21.1483 24.3884 21.4879 24.2975C21.8275 24.2065 22.1114 24.2349 22.3398 24.3826C22.5664 24.5241 22.7176 24.7363 22.7934 25.0193C22.8693 25.3023 22.8444 25.5617 22.7189 25.7975C22.5917 26.0271 22.3583 26.1874 22.0187 26.2784C21.6791 26.3694 21.3968 26.3473 21.1719 26.2121C20.9516 26.0689 20.8035 25.8558 20.7276 25.5728Z" fill="#F44336"/>
<circle cx="77.5" cy="69.5" r="2" stroke="#4FC3F7"/>
<circle cx="13.5" cy="37.5" r="2" stroke="#4FC3F7"/>
<circle cx="89.5" cy="26.5" r="2" stroke="#4FC3F7"/>
<circle cx="37" cy="31" r="2" fill="#BDBDBD"/>
<circle cx="48" cy="31" r="2" fill="#BDBDBD"/>
<path d="M48 41.5C48 38.4624 45.5376 36 42.5 36C39.4624 36 37 38.4624 37 41.5" stroke="#BDBDBD" stroke-linecap="round"/>
<line x1="31.5" y1="53.5" x2="54.5" y2="53.5" stroke="#BDBDBD" stroke-linecap="round"/>
<line x1="31.5" y1="57.5" x2="54.5" y2="57.5" stroke="#BDBDBD" stroke-linecap="round"/>
<line x1="31.5" y1="61.5" x2="54.5" y2="61.5" stroke="#BDBDBD" stroke-linecap="round"/>
<line x1="31.5" y1="65.5" x2="54.5" y2="65.5" stroke="#BDBDBD" stroke-linecap="round"/>
</svg>
