<svg width="124" height="36" viewBox="0 0 124 36" fill="none" xmlns="http://www.w3.org/2000/svg">
<path d="M7.63841 10.6355C7.25254 10.2407 6.75905 9.96815 6.21939 9.85177C5.67973 9.73539 5.11776 9.78035 4.60347 9.98105C4.08918 10.1818 3.6453 10.5293 3.32711 10.9805C3.00893 11.4316 2.8305 11.9664 2.81406 12.5182C2.50679 12.6955 2.24579 12.9429 2.05237 13.2403C1.85894 13.5377 1.73857 13.8766 1.70108 14.2293C1.66359 14.5821 1.71004 14.9387 1.83664 15.2701C1.96324 15.6015 2.1664 15.8982 2.42954 16.1361C2.69269 16.374 3.00835 16.5464 3.35078 16.639C3.69321 16.7317 4.0527 16.742 4.3999 16.6693C4.74711 16.5965 5.07219 16.4427 5.34862 16.2204C5.62505 15.9981 5.84499 15.7135 5.9905 15.39C6.44279 15.3307 6.87391 15.1625 7.24677 14.8997C7.57295 15.0392 7.92749 15.0995 8.28145 15.0759C8.63541 15.0522 8.97876 14.9452 9.28347 14.7635C9.58818 14.5819 9.84562 14.3307 10.0348 14.0306C10.2239 13.7305 10.3395 13.3899 10.3719 13.0367C10.4043 12.6834 10.3528 12.3275 10.2215 11.9979C10.0901 11.6684 9.88275 11.3746 9.61623 11.1404C9.3497 10.9063 9.03159 10.7385 8.68787 10.6508C8.34414 10.5631 7.98454 10.5578 7.63841 10.6355Z" fill="url(#paint0_linear)"/>
<path d="M13.243 25.9313L9.05093 27.5674L5.01056 19.4683C4.81942 19.0851 4.71023 18.6662 4.68997 18.2384C4.66972 17.8107 4.73882 17.3834 4.89289 16.9838C5.04696 16.5842 5.28261 16.2211 5.58481 15.9177C5.88701 15.6142 6.24912 15.3771 6.64807 15.2214C7.04704 15.0657 7.47408 14.9949 7.90195 15.0134C8.32982 15.0319 8.74914 15.1394 9.13315 15.3291C9.51716 15.5187 9.85744 15.7862 10.1323 16.1147C10.4071 16.4431 10.6105 16.8253 10.7294 17.2367L13.243 25.9313Z" fill="url(#paint1_linear)"/>
<path d="M19.125 2.6875C19.125 2.13522 19.5727 1.6875 20.125 1.6875H20.375C20.9273 1.6875 21.375 2.13522 21.375 2.6875V16.4375C21.375 16.9898 20.9273 17.4375 20.375 17.4375H20.125C19.5727 17.4375 19.125 16.9898 19.125 16.4375V2.6875Z" fill="url(#paint2_linear)"/>
<path d="M20.087 13.2931C20.1525 13.1502 20.1761 12.9907 20.1439 12.8368C20.0902 12.5806 20.0159 12.329 19.9216 12.0846L17.7422 6.41744C17.5717 5.97409 17.0827 5.74327 16.632 5.89348C16.1515 6.05366 15.9019 6.58253 16.0838 7.05528L18.1596 12.4523C18.426 13.145 18.5626 13.8808 18.5625 14.6229C18.5625 15.0907 19.1993 15.2297 19.3942 14.8044L20.087 13.2931Z" fill="#1AA060"/>
<path d="M22.6627 22.9043C22.9403 23.2745 23.0903 23.7248 23.0903 24.1875C23.0903 24.6502 22.9403 25.1005 22.6627 25.4707L22.6549 25.4812C22.4323 25.7782 22.1435 26.0191 21.8116 26.1851C21.4796 26.3511 21.1136 26.4375 20.7424 26.4375H19.7581C19.3869 26.4375 19.0209 26.3511 18.6889 26.1851C18.357 26.0191 18.0682 25.7782 17.8456 25.4812L17.8378 25.4707C17.5602 25.1005 17.4102 24.6502 17.4102 24.1875C17.4102 23.7248 17.5602 23.2745 17.8378 22.9043L18.3628 22.2041C18.4926 22.0311 18.5628 21.8206 18.5628 21.6042V16.8373C18.5628 16.6935 18.5938 16.5514 18.6537 16.4207L20.1877 13.0739L20.2502 12.9375L22.758 6.41741C22.9285 5.97407 23.4176 5.74327 23.8682 5.89348C24.3487 6.05366 24.5983 6.58254 24.4165 7.0553L22.3406 12.4523C22.0742 13.145 21.9376 13.8808 21.9377 14.6229V21.6042C21.9377 21.8206 22.0079 22.0311 22.1377 22.2041L22.6627 22.9043Z" fill="#1AA060"/>
<path d="M22.6627 25.4707L22.6549 25.4813C22.4185 25.7969 22.1073 26.0489 21.7493 26.2146L18.3863 26.0044C18.1793 25.8599 17.9968 25.6833 17.8456 25.4813L17.8378 25.4707C17.5602 25.1005 17.4102 24.6503 17.4102 24.1875C17.4102 23.7248 17.5602 23.2745 17.8378 22.9043L17.8878 22.8375L18.5628 22.5L21.9378 14.6229V21.9375L22.6627 22.9043C22.9403 23.2745 23.0904 23.7248 23.0904 24.1875C23.0904 24.6503 22.9403 25.1005 22.6627 25.4707Z" fill="#027E2A"/>
<path d="M22.6627 25.4707L22.6549 25.4813C22.4185 25.7969 22.1073 26.0489 21.7493 26.2146L18.3863 26.0044C18.1793 25.8599 17.9968 25.6833 17.8456 25.4813L17.8378 25.4707C17.5602 25.1005 17.4102 24.6503 17.4102 24.1875C17.4102 23.7248 17.5602 23.2745 17.8378 22.9043L17.8878 22.8375L18.5628 22.5L21.9378 14.6229V21.9375L22.6627 22.9043C22.9403 23.2745 23.0904 23.7248 23.0904 24.1875C23.0904 24.6503 22.9403 25.1005 22.6627 25.4707Z" fill="#C4D7CE"/>
<path d="M12.584 13.2443H14.0175C14.4943 13.2443 14.9617 13.3771 15.3673 13.6278C15.7728 13.8785 16.1006 14.2372 16.3137 14.6637L16.812 15.6603H15.3785C14.9018 15.6603 14.4345 15.5276 14.0289 15.2769C13.6234 15.0263 13.2957 14.6677 13.0825 14.2413L12.584 13.2443Z" fill="#2FBA77"/>
<path d="M15.5015 19.1334C15.3413 19.1334 15.1876 19.0698 15.0744 18.9565C14.9611 18.8432 14.8975 18.6896 14.8975 18.5294C14.8996 17.5387 15.2439 16.5792 15.8719 15.8131C16.5 15.047 17.3734 14.5213 18.3444 14.3248L18.4031 14.313C18.5602 14.2817 18.7233 14.3139 18.8566 14.4028C18.9899 14.4917 19.0824 14.6299 19.1138 14.787C19.1452 14.9441 19.1129 15.1072 19.024 15.2405C18.9351 15.3737 18.797 15.4663 18.6399 15.4977L18.5812 15.5094C17.8838 15.6504 17.2565 16.028 16.8053 16.5783C16.3542 17.1286 16.107 17.8178 16.1055 18.5294C16.1055 18.6896 16.0418 18.8432 15.9286 18.9565C15.8153 19.0698 15.6617 19.1334 15.5015 19.1334Z" fill="#8F6934"/>
<path d="M13.3384 17.3214C13.6321 17.3213 13.9212 17.3938 14.1801 17.5324C14.439 17.671 14.6597 17.8713 14.8227 18.1157C14.8971 18.2274 14.998 18.319 15.1164 18.3823C15.2347 18.4456 15.3669 18.4788 15.5011 18.4788C15.6353 18.4788 15.7675 18.4456 15.8858 18.3823C16.0042 18.319 16.1051 18.2274 16.1795 18.1157C16.3424 17.8713 16.5631 17.671 16.822 17.5324C17.081 17.3939 17.3701 17.3214 17.6637 17.3214C17.9313 17.3213 18.1953 17.3815 18.4365 17.4974C18.6776 17.6133 18.8895 17.7819 19.0566 17.9908L19.1985 18.1681C19.7067 18.8033 20.005 19.5807 20.0522 20.3928C20.0994 21.2049 19.8932 22.0116 19.4621 22.7014L18.2835 24.5871C18.1714 24.7666 18.0155 24.9145 17.8304 25.017C17.6454 25.1196 17.4373 25.1734 17.2258 25.1734C16.8949 25.1734 16.5777 25.042 16.3438 24.8081C16.2331 24.6974 16.1017 24.6096 15.9571 24.5497C15.8126 24.4898 15.6576 24.459 15.5011 24.459C15.3446 24.459 15.1896 24.4898 15.0451 24.5497C14.9005 24.6096 14.7691 24.6974 14.6584 24.8081C14.4245 25.042 14.1072 25.1734 13.7764 25.1734C13.5649 25.1734 13.3568 25.1196 13.1717 25.0171C12.9867 24.9145 12.8308 24.7666 12.7187 24.5871L11.5401 22.7014C11.109 22.0116 10.9028 21.2049 10.95 20.3928C10.9972 19.5807 11.2955 18.8033 11.8037 18.1681L11.9455 17.9908C12.1126 17.7819 12.3246 17.6133 12.5657 17.4974C12.8068 17.3815 13.0709 17.3214 13.3384 17.3214Z" fill="url(#paint3_linear)"/>
<path opacity="0.2" d="M13.7625 22.3044C13.6831 22.3045 13.6046 22.2889 13.5313 22.2585C13.458 22.2282 13.3914 22.1836 13.3354 22.1275C13.0694 21.8621 12.8939 21.5198 12.8337 21.149C12.7734 20.7782 12.8316 20.3978 12.9999 20.062L13.2219 19.618C13.2943 19.476 13.4199 19.3684 13.5713 19.3186C13.7227 19.2688 13.8877 19.2808 14.0302 19.3521C14.1727 19.4234 14.2813 19.5481 14.3323 19.6991C14.3833 19.8501 14.3725 20.0152 14.3024 20.1583L14.0804 20.6023C14.0257 20.7113 14.0068 20.8348 14.0264 20.9553C14.0459 21.0757 14.1029 21.1869 14.1893 21.273C14.2738 21.3575 14.3314 21.4651 14.3548 21.5823C14.3781 21.6994 14.3662 21.8209 14.3205 21.9313C14.2748 22.0417 14.1974 22.1361 14.0981 22.2025C13.9987 22.2689 13.8819 22.3043 13.7625 22.3044Z" fill="white"/>
<path d="M24.8975 20.4996L25.4151 21.0171C25.8113 21.4133 26.1255 21.8837 26.34 22.4013C26.5544 22.919 26.6647 23.4738 26.6647 24.0341H28.432V23.445C28.432 22.8847 28.3217 22.3299 28.1072 21.8122C27.8928 21.2946 27.5785 20.8242 27.1823 20.4281L26.6647 19.9105L24.8975 20.4996Z" fill="#1AA060"/>
<path d="M31.9662 20.4996L31.4486 21.0171C31.0524 21.4133 30.7381 21.8837 30.5237 22.4013C30.3093 22.919 30.1989 23.4738 30.1989 24.0341H28.4316V23.445C28.4316 22.8847 28.542 22.3299 28.7564 21.8122C28.9708 21.2946 29.2851 20.8242 29.6813 20.4281L30.1989 19.9105L31.9662 20.4996Z" fill="#1AA060"/>
<path d="M34.9116 15.9341C34.9119 15.6099 34.8406 15.2896 34.703 14.9961C34.5653 14.7026 34.3646 14.443 34.1152 14.2359C34.1895 13.9235 34.1949 13.5987 34.1308 13.284C34.0668 12.9694 33.9348 12.6725 33.7443 12.4141C33.5537 12.1556 33.309 11.9419 33.0274 11.7877C32.7457 11.6335 32.4338 11.5426 32.1134 11.5213C31.7262 10.8482 31.1684 10.2891 30.4962 9.90031C29.824 9.51153 29.0612 9.30682 28.2847 9.30682C27.5081 9.30682 26.7453 9.51153 26.0732 9.90031C25.401 10.2891 24.8432 10.8482 24.4559 11.5213C24.1355 11.5425 23.8236 11.6334 23.5419 11.7876C23.2601 11.9417 23.0154 12.1555 22.8248 12.4139C22.6342 12.6724 22.5023 12.9693 22.4382 13.284C22.3741 13.5986 22.3794 13.9235 22.4538 14.2359C22.0055 14.6085 21.7228 15.1432 21.6673 15.7234C21.6117 16.3037 21.7879 16.8823 22.1572 17.3332C21.8365 17.9279 21.73 18.6148 21.8556 19.2788C21.9812 19.9427 22.3312 20.5432 22.847 20.9797C23.3628 21.4162 24.013 21.6621 24.6886 21.6761C25.3641 21.6901 26.024 21.4715 26.5575 21.0568C27.1842 20.9749 27.7791 20.7322 28.2843 20.3523C28.7895 20.7322 29.3844 20.975 30.0111 21.0569C30.5446 21.4717 31.2045 21.6904 31.8801 21.6764C32.5557 21.6623 33.2059 21.4165 33.7217 20.9799C34.2375 20.5434 34.5876 19.9428 34.7132 19.2789C34.8387 18.6149 34.7322 17.9279 34.4114 17.3332C34.7354 16.939 34.9122 16.4444 34.9116 15.9341Z" fill="url(#paint4_linear)"/>
<rect x="1.63672" y="23.7273" width="32.7273" height="10.6364" rx="2" fill="#FBB540"/>
<path d="M1.6875 27.5625H34.3125V30.9375H1.6875V27.5625Z" fill="#EA9D2D"/>
<path d="M5.0625 29.8125H3.9375C3.78832 29.8125 3.64524 29.7532 3.53975 29.6477C3.43426 29.5423 3.375 29.3992 3.375 29.25C3.375 29.1008 3.43426 28.9577 3.53975 28.8523C3.64524 28.7468 3.78832 28.6875 3.9375 28.6875H5.0625C5.21168 28.6875 5.35476 28.7468 5.46025 28.8523C5.56574 28.9577 5.625 29.1008 5.625 29.25C5.625 29.3992 5.56574 29.5423 5.46025 29.6477C5.35476 29.7532 5.21168 29.8125 5.0625 29.8125Z" fill="#C38325"/>
<path d="M32.0625 29.8125H30.9375C30.7883 29.8125 30.6452 29.7532 30.5398 29.6477C30.4343 29.5423 30.375 29.3992 30.375 29.25C30.375 29.1008 30.4343 28.9577 30.5398 28.8523C30.6452 28.7468 30.7883 28.6875 30.9375 28.6875H32.0625C32.2117 28.6875 32.3548 28.7468 32.4602 28.8523C32.5657 28.9577 32.625 29.1008 32.625 29.25C32.625 29.3992 32.5657 29.5423 32.4602 29.6477C32.3548 29.7532 32.2117 29.8125 32.0625 29.8125Z" fill="#C38325"/>
<path d="M5.0625 33.1875H3.9375C3.78832 33.1875 3.64524 33.1282 3.53975 33.0227C3.43426 32.9173 3.375 32.7742 3.375 32.625C3.375 32.4758 3.43426 32.3327 3.53975 32.2273C3.64524 32.1218 3.78832 32.0625 3.9375 32.0625H5.0625C5.21168 32.0625 5.35476 32.1218 5.46025 32.2273C5.56574 32.3327 5.625 32.4758 5.625 32.625C5.625 32.7742 5.56574 32.9173 5.46025 33.0227C5.35476 33.1282 5.21168 33.1875 5.0625 33.1875Z" fill="#C38325"/>
<path d="M18.5625 29.8125H17.4375C17.2883 29.8125 17.1452 29.7532 17.0398 29.6477C16.9343 29.5423 16.875 29.3992 16.875 29.25C16.875 29.1008 16.9343 28.9577 17.0398 28.8523C17.1452 28.7468 17.2883 28.6875 17.4375 28.6875H18.5625C18.7117 28.6875 18.8548 28.7468 18.9602 28.8523C19.0657 28.9577 19.125 29.1008 19.125 29.25C19.125 29.3992 19.0657 29.5423 18.9602 29.6477C18.8548 29.7532 18.7117 29.8125 18.5625 29.8125Z" fill="#C38325"/>
<path d="M18.5625 33.1875H17.4375C17.2883 33.1875 17.1452 33.1282 17.0398 33.0227C16.9343 32.9173 16.875 32.7742 16.875 32.625C16.875 32.4758 16.9343 32.3327 17.0398 32.2273C17.1452 32.1218 17.2883 32.0625 17.4375 32.0625H18.5625C18.7117 32.0625 18.8548 32.1218 18.9602 32.2273C19.0657 32.3327 19.125 32.4758 19.125 32.625C19.125 32.7742 19.0657 32.9173 18.9602 33.0227C18.8548 33.1282 18.7117 33.1875 18.5625 33.1875Z" fill="#C38325"/>
<path d="M32.0625 33.1875H30.9375C30.7883 33.1875 30.6452 33.1282 30.5398 33.0227C30.4343 32.9173 30.375 32.7742 30.375 32.625C30.375 32.4758 30.4343 32.3327 30.5398 32.2273C30.6452 32.1218 30.7883 32.0625 30.9375 32.0625H32.0625C32.2117 32.0625 32.3548 32.1218 32.4602 32.2273C32.5657 32.3327 32.625 32.4758 32.625 32.625C32.625 32.7742 32.5657 32.9173 32.4602 33.0227C32.3548 33.1282 32.2117 33.1875 32.0625 33.1875Z" fill="#C38325"/>
<path d="M5.0625 26.4375H3.9375C3.78832 26.4375 3.64524 26.3782 3.53975 26.2727C3.43426 26.1673 3.375 26.0242 3.375 25.875C3.375 25.7258 3.43426 25.5827 3.53975 25.4773C3.64524 25.3718 3.78832 25.3125 3.9375 25.3125H5.0625C5.21168 25.3125 5.35476 25.3718 5.46025 25.4773C5.56574 25.5827 5.625 25.7258 5.625 25.875C5.625 26.0242 5.56574 26.1673 5.46025 26.2727C5.35476 26.3782 5.21168 26.4375 5.0625 26.4375Z" fill="#C38325"/>
<path d="M32.0625 26.4375H30.9375C30.7883 26.4375 30.6452 26.3782 30.5398 26.2727C30.4343 26.1673 30.375 26.0242 30.375 25.875C30.375 25.7258 30.4343 25.5827 30.5398 25.4773C30.6452 25.3718 30.7883 25.3125 30.9375 25.3125H32.0625C32.2117 25.3125 32.3548 25.3718 32.4602 25.4773C32.5657 25.5827 32.625 25.7258 32.625 25.875C32.625 26.0242 32.5657 26.1673 32.4602 26.2727C32.3548 26.3782 32.2117 26.4375 32.0625 26.4375Z" fill="#C38325"/>
<path d="M18.5625 26.4375H17.4375C17.2883 26.4375 17.1452 26.3782 17.0398 26.2727C16.9343 26.1673 16.875 26.0242 16.875 25.875C16.875 25.7258 16.9343 25.5827 17.0398 25.4773C17.1452 25.3718 17.2883 25.3125 17.4375 25.3125H18.5625C18.7117 25.3125 18.8548 25.3718 18.9602 25.4773C19.0657 25.5827 19.125 25.7258 19.125 25.875C19.125 26.0242 19.0657 26.1673 18.9602 26.2727C18.8548 26.3782 18.7117 26.4375 18.5625 26.4375Z" fill="#C38325"/>
<path d="M45.2422 15H47.7622V6.82799L51.1462 15H53.0542L56.4202 6.82799V15H58.9402V2.43599H56.0962L52.1002 11.778L48.1042 2.43599H45.2422V15Z" fill="#2FBA77"/>
<path d="M65.6796 11.994L63.1056 5.02799H60.2796L64.2756 14.748L62.1156 19.716H64.7976L70.9716 5.02799H68.2896L65.6796 11.994Z" fill="#2FBA77"/>
<path d="M72.3301 15H74.8501V9.68999H78.8641V7.69199H74.8501V4.46999H80.0881V2.43599H72.3301V15Z" fill="#2FBA77"/>
<path d="M84.395 10.032C84.395 8.08799 85.295 7.52999 86.789 7.52999H87.455V4.88399C86.069 4.88399 85.025 5.54999 84.395 6.57599V5.02799H81.875V15H84.395V10.032Z" fill="#2FBA77"/>
<path d="M93.4363 6.93599C94.7323 6.93599 95.7583 7.78199 95.8123 9.07799H91.0783C91.2763 7.70999 92.2123 6.93599 93.4363 6.93599ZM95.4523 11.868C95.1103 12.534 94.5343 13.074 93.4543 13.074C92.1763 13.074 91.1863 12.264 91.0603 10.77H98.3503C98.4043 10.428 98.4223 10.14 98.4223 9.79799C98.4223 6.82799 96.3883 4.86599 93.5083 4.86599C90.5563 4.86599 88.5043 6.86399 88.5043 10.014C88.5043 13.146 90.6283 15.162 93.5083 15.162C95.9743 15.162 97.6303 13.704 98.1703 11.868H95.4523Z" fill="#2FBA77"/>
<path d="M108.002 12.156C107.93 8.50199 102.404 9.61799 102.404 7.81799C102.404 7.24199 102.89 6.86399 103.826 6.86399C104.834 6.86399 105.428 7.38599 105.5 8.15999H107.912C107.768 6.16199 106.328 4.86599 103.898 4.86599C101.432 4.86599 99.9557 6.19799 99.9557 7.85399C99.9557 11.508 105.59 10.374 105.59 12.156C105.59 12.732 105.068 13.182 104.06 13.182C103.052 13.182 102.35 12.624 102.26 11.85H99.7217C99.8117 13.704 101.576 15.162 104.078 15.162C106.508 15.162 108.002 13.884 108.002 12.156Z" fill="#2FBA77"/>
<path d="M110.07 15H112.59V9.49199C112.59 7.88999 113.472 7.02599 114.84 7.02599C116.19 7.02599 117.054 7.88999 117.054 9.49199V15H119.574V9.14999C119.574 6.39599 117.936 4.88399 115.686 4.88399C114.336 4.88399 113.238 5.42399 112.59 6.26999V1.67999H110.07V15Z" fill="#2FBA77"/>
<path d="M54.026 30.364C54.026 25.918 47.582 27.34 47.582 24.82C47.582 23.794 48.302 23.29 49.31 23.344C50.39 23.362 51.056 23.992 51.11 24.838H53.882C53.72 22.552 51.974 21.256 49.382 21.256C46.79 21.256 44.954 22.642 44.954 24.892C44.954 29.428 51.416 27.808 51.416 30.526C51.416 31.444 50.732 32.056 49.526 32.056C48.356 32.056 47.69 31.39 47.618 30.382H44.918C44.972 32.758 46.97 34.126 49.58 34.126C52.46 34.126 54.026 32.344 54.026 30.364Z" fill="#186C44"/>
<path d="M60.4947 25.936C61.7907 25.936 62.8167 26.782 62.8707 28.078H58.1367C58.3347 26.71 59.2707 25.936 60.4947 25.936ZM62.5107 30.868C62.1687 31.534 61.5927 32.074 60.5127 32.074C59.2347 32.074 58.2447 31.264 58.1187 29.77H65.4087C65.4627 29.428 65.4807 29.14 65.4807 28.798C65.4807 25.828 63.4467 23.866 60.5667 23.866C57.6147 23.866 55.5627 25.864 55.5627 29.014C55.5627 32.146 57.6867 34.162 60.5667 34.162C63.0327 34.162 64.6887 32.704 65.2287 30.868H62.5107Z" fill="#186C44"/>
<path d="M67.3201 34H69.8401V20.68H67.3201V34Z" fill="#186C44"/>
<path d="M72.3299 34H74.8499V20.68H72.3299V34Z" fill="#186C44"/>
<path d="M81.6236 25.936C82.9196 25.936 83.9456 26.782 83.9996 28.078H79.2656C79.4636 26.71 80.3996 25.936 81.6236 25.936ZM83.6396 30.868C83.2976 31.534 82.7216 32.074 81.6416 32.074C80.3636 32.074 79.3736 31.264 79.2476 29.77H86.5376C86.5916 29.428 86.6096 29.14 86.6096 28.798C86.6096 25.828 84.5756 23.866 81.6956 23.866C78.7436 23.866 76.6916 25.864 76.6916 29.014C76.6916 32.146 78.8156 34.162 81.6956 34.162C84.1616 34.162 85.8176 32.704 86.3576 30.868H83.6396Z" fill="#186C44"/>
<path d="M90.969 29.032C90.969 27.088 91.869 26.53 93.363 26.53H94.029V23.884C92.643 23.884 91.599 24.55 90.969 25.576V24.028H88.449V34H90.969V29.032Z" fill="#186C44"/>
<defs>
<linearGradient id="paint0_linear" x1="6.0349" y1="9.78854" x2="6.0349" y2="16.7171" gradientUnits="userSpaceOnUse">
<stop stop-color="#41D68E"/>
<stop offset="1" stop-color="#2FBA77"/>
</linearGradient>
<linearGradient id="paint1_linear" x1="13.0368" y1="27.4103" x2="4.69035" y2="15.698" gradientUnits="userSpaceOnUse">
<stop stop-color="#FF9B25"/>
<stop offset="1" stop-color="#FFB525"/>
</linearGradient>
<linearGradient id="paint2_linear" x1="20.25" y1="1.6875" x2="20.25" y2="17.4375" gradientUnits="userSpaceOnUse">
<stop stop-color="#41D68E"/>
<stop offset="1" stop-color="#2FBA77"/>
</linearGradient>
<linearGradient id="paint3_linear" x1="15.5011" y1="17.3214" x2="15.5011" y2="25.1734" gradientUnits="userSpaceOnUse">
<stop stop-color="#FF6868"/>
<stop offset="1" stop-color="#F03C3C"/>
</linearGradient>
<linearGradient id="paint4_linear" x1="28.2844" y1="9.30682" x2="28.2844" y2="21.677" gradientUnits="userSpaceOnUse">
<stop stop-color="#41D68E"/>
<stop offset="1" stop-color="#2FBA77"/>
</linearGradient>
</defs>
</svg>
