<svg width="64" height="64" viewBox="0 0 64 64" fill="none" xmlns="http://www.w3.org/2000/svg">
<g clip-path="url(#clip0)">
<path d="M54.6612 63.988H9.33837C2.40537 63.988 -2.10388 56.6918 0.996616 50.4908L23.658 5.16771C27.095 -1.70629 36.9045 -1.70629 40.3415 5.16771L63.0029 50.4907C66.1036 56.6918 61.5944 63.988 54.6612 63.988Z" fill="url(#paint0_linear)"/>
<path d="M54.6612 63.988H9.33837C2.40537 63.988 -2.10388 56.6918 0.996616 50.4908L23.658 5.16771C27.095 -1.70629 36.9045 -1.70629 40.3415 5.16771L63.0029 50.4907C66.1036 56.6918 61.5944 63.988 54.6612 63.988Z" fill="url(#paint1_linear)"/>
<path opacity="0.5" d="M54.6608 63.9877H51.092L30.4627 43.3584C29.8528 43.0598 29.5466 42.544 29.5466 41.8074C29.5466 39.024 29.4323 37.0388 29.204 30.7392C28.9756 24.4408 28.8613 23.147 28.8613 20.3637C28.8613 19.4752 29.1637 18.79 29.7686 18.3069C30.3722 17.8225 31.1552 17.5815 32.1165 17.5815C33.0777 17.5815 33.7842 17.8325 34.2335 18.3358C34.3201 18.4312 53.126 37.2308 59.6175 43.7198L63.0032 50.4912C66.1042 56.6917 61.5942 63.9877 54.6608 63.9877Z" fill="#DD6F26"/>
<path opacity="0.5" d="M49.6208 63.9873H40.2869L29.5864 53.2868C28.8749 52.6593 28.5186 51.9278 28.5186 51.0906C28.5186 50.2185 28.8749 49.4769 29.5864 48.867C30.2979 48.2571 31.1626 47.9521 32.1791 47.9521C33.0738 47.9521 33.8481 48.2571 34.5006 48.867L49.6208 63.9873Z" fill="#DD6F26"/>
<path d="M28.5186 51.0903C28.5186 50.2182 28.8743 49.4774 29.5857 48.8677C30.2972 48.2577 31.1619 47.9519 32.1783 47.9519C33.0734 47.9519 33.8472 48.2577 34.4997 48.8677C35.1523 49.4774 35.4797 50.2182 35.4797 51.0903C35.4797 51.9273 35.1526 52.6594 34.4997 53.2869C33.8472 53.9147 33.0733 54.2284 32.1783 54.2284C31.1618 54.2284 30.2972 53.9146 29.5857 53.2869C28.8743 52.6594 28.5186 51.9274 28.5186 51.0903ZM28.8609 20.3636C28.8609 19.4754 29.1631 18.7894 29.7677 18.3062C30.3721 17.8229 31.1548 17.5811 32.1159 17.5811C33.0771 17.5811 33.7832 17.8327 34.2334 18.3354C34.6836 18.8382 34.9092 19.5141 34.9092 20.3636C34.9092 23.1472 34.8609 24.4402 34.7666 30.7396C34.6712 37.0392 34.6241 39.0242 34.6241 41.8067C34.6241 42.3873 34.3522 42.8418 33.8092 43.1698C33.2653 43.4979 32.7009 43.6622 32.1161 43.6622C30.4027 43.6622 29.5458 43.0442 29.5458 41.8067C29.5458 39.0242 29.4316 37.0392 29.2034 30.7396C28.9749 24.4401 28.8609 23.1471 28.8609 20.3636Z" fill="white" stroke="white"/>
</g>
<defs>
<linearGradient id="paint0_linear" x1="16.0513" y1="27.3748" x2="89.0575" y2="100.381" gradientUnits="userSpaceOnUse">
<stop stop-color="#FFB92D"/>
<stop offset="1" stop-color="#F59500"/>
</linearGradient>
<linearGradient id="paint1_linear" x1="18.9999" y1="3.01107" x2="56.4828" y2="64.0106" gradientUnits="userSpaceOnUse">
<stop stop-color="#FFC350"/>
<stop offset="0.962917" stop-color="#FF8139"/>
</linearGradient>
<clipPath id="clip0">
<rect width="64" height="64" fill="white"/>
</clipPath>
</defs>
</svg>
