<svg width="56" height="56" viewBox="0 0 56 56" fill="none" xmlns="http://www.w3.org/2000/svg">
<path d="M22.3223 22.225V14.525H19.916C19.2778 14.525 18.6658 14.2715 18.2145 13.8202C17.7633 13.369 17.5098 12.7569 17.5098 12.1188C17.5098 11.4806 17.7633 10.8685 18.2145 10.4173C18.6658 9.96603 19.2778 9.71251 19.916 9.71251H22.3223L20.8785 8.26876C20.4956 7.88585 20.2805 7.36652 20.2805 6.82501C20.2805 6.2835 20.4956 5.76418 20.8785 5.38126C21.2614 4.99837 21.7808 4.78326 22.3223 4.78326C22.8638 4.78326 23.3831 4.99837 23.766 5.38126L25.2098 6.82501V4.90001C25.2098 4.1342 25.514 3.39975 26.0555 2.85824C26.597 2.31673 27.3315 2.01251 28.0973 2.01251C28.8631 2.01251 29.5975 2.31673 30.139 2.85824C30.6805 3.39975 30.9848 4.1342 30.9848 4.90001V6.82501L32.4285 5.38126C32.8114 4.99837 33.3308 4.78326 33.8723 4.78326C34.4138 4.78326 34.9331 4.99837 35.316 5.38126C35.6989 5.76418 35.914 6.2835 35.914 6.82501C35.914 7.36652 35.6989 7.88585 35.316 8.26876L33.8723 9.71251H36.2785C36.9167 9.71251 37.5287 9.96603 37.98 10.4173C38.4312 10.8685 38.6848 11.4806 38.6848 12.1188C38.6848 12.7569 38.4312 13.369 37.98 13.8202C37.5287 14.2715 36.9167 14.525 36.2785 14.525H33.8723V22.225H22.3223Z" fill="#2FBA77"/>
<path d="M29.0601 14.525C27.7837 14.525 26.5596 15.0321 25.6571 15.9346C24.7546 16.8371 24.2476 18.0612 24.2476 19.3375V20.3H33.8726V19.3375C33.8726 18.0612 33.3655 16.8371 32.463 15.9346C31.5605 15.0321 30.3364 14.525 29.0601 14.525Z" fill="#FB0200"/>
<path d="M7.88477 21.2625V4.90002C7.88477 3.62367 8.3918 2.39959 9.29431 1.49707C10.1968 0.594554 11.4209 0.0875244 12.6973 0.0875244C13.9736 0.0875244 15.1977 0.594554 16.1002 1.49707C17.0027 2.39959 17.5098 3.62367 17.5098 4.90002V21.2625H7.88477Z" fill="#FF8706"/>
<path d="M5.95996 19.3375H13.66V50.1375H5.95996V19.3375Z" fill="#2FBA77"/>
<path d="M10.7725 6.82501H14.6225V8.75001H10.7725V6.82501Z" fill="#FFA646"/>
<path d="M10.7725 10.675H14.6225V12.6H10.7725V10.675Z" fill="#FFA646"/>
<path d="M10.7725 14.525H14.6225V16.45H10.7725V14.525Z" fill="#FFA646"/>
<path d="M13.6602 19.3375H35.7977V50.1375H13.6602V19.3375Z" fill="#37D88A"/>
<path d="M24.2476 11.6375V9.71254C24.7579 9.71193 25.2472 9.50892 25.6081 9.14805C25.9689 8.78717 26.172 8.29789 26.1726 7.78754H28.0976C28.0964 8.80827 27.6904 9.78686 26.9687 10.5086C26.2469 11.2304 25.2683 11.6364 24.2476 11.6375Z" fill="#1E995E"/>
<path d="M32.9101 12.6C31.8893 12.5989 30.9107 12.1929 30.189 11.4711C29.4672 10.7494 29.0612 9.77076 29.0601 8.75003H30.9851C30.9857 9.26039 31.1887 9.74967 31.5495 10.1105C31.9104 10.4714 32.3997 10.6744 32.9101 10.675V12.6Z" fill="#1E995E"/>
<path d="M15.585 14.525C15.585 15.157 15.7094 15.7828 15.9513 16.3667C16.1931 16.9506 16.5476 17.4811 16.9945 17.928C17.897 18.8305 19.1211 19.3375 20.3975 19.3375H22.3225C22.833 19.3375 23.3226 19.1347 23.6836 18.7737C24.0447 18.4127 24.2475 17.9231 24.2475 17.4125C24.2475 16.1362 23.7404 14.9121 22.8379 14.0096C21.9354 13.1071 20.7113 12.6 19.435 12.6H17.51C16.9994 12.6 16.5098 12.8028 16.1488 13.1639C15.7878 13.5249 15.585 14.0145 15.585 14.525Z" fill="#FFC933"/>
<path d="M51.1976 46.2875H40.6101L36.3956 42.0731C36.0127 41.6902 35.4934 41.4751 34.9519 41.475C34.4104 41.475 33.891 41.6902 33.5081 42.0731C33.1252 42.456 32.9101 42.9753 32.9101 43.5169V43.6819C32.91 44.1237 33.0534 44.5536 33.3185 44.9069L35.5224 47.8439C35.701 48.0819 35.7976 48.3714 35.7976 48.669V48.6916C35.7978 48.8814 35.7606 49.0693 35.6881 49.2447C35.6156 49.42 35.5093 49.5794 35.3753 49.7137C35.2412 49.848 35.082 49.9545 34.9067 50.0272C34.7314 50.1 34.5436 50.1374 34.3538 50.1375H21.4474C21.1831 50.1375 20.9215 50.1896 20.6773 50.2907C20.4331 50.3918 20.2113 50.54 20.0244 50.7269C19.8376 50.9138 19.6893 51.1356 19.5882 51.3798C19.4871 51.6239 19.435 51.8856 19.4351 52.1499C19.4351 52.652 19.6228 53.136 19.9614 53.5068C20.3 53.8776 20.765 54.1084 21.2651 54.1539L38.0006 55.6754C39.7319 55.8328 41.4766 55.7549 43.187 55.4439L51.1976 53.9875V46.2875Z" fill="#F9CDAF"/>
<path d="M33.3891 51.1C34.0279 51.1 34.6404 50.8463 35.0921 50.3946C35.5438 49.943 35.7975 49.3304 35.7975 48.6916C35.7977 48.8814 35.7605 49.0693 35.6881 49.2447C35.6156 49.42 35.5093 49.5794 35.3752 49.7137C35.2411 49.848 35.0819 49.9545 34.9067 50.0272C34.7314 50.1 34.5435 50.1374 34.3538 50.1375H21.4474C21.1031 50.1376 20.7646 50.2262 20.4644 50.3948C20.1641 50.5633 19.9123 50.8062 19.7329 51.1H33.3891Z" fill="#EABB9B"/>
</svg>
